  0
SECTION
  2
HEADER
  9
$ACADVER
  1
AC1014
  9
$ACADMAINTVER
 70
     0
  9
$DWGCODEPAGE
  3
ANSI_1252
  9
$INSBASE
 10
0.0
 20
0.0
 30
0.0
  9
$EXTMIN
 10
0.0
 20
0.0
 30
0.0
  9
$EXTMAX
 10
210.0
 20
297.0
 30
0.0
  9
$LIMMIN
 10
0.0
 20
0.0
  9
$LIMMAX
 10
12.0
 20
9.0
  9
$ORTHOMODE
 70
     0
  9
$REGENMODE
 70
     1
  9
$FILLMODE
 70
     0
  9
$QTEXTMODE
 70
     0
  9
$MIRRTEXT
 70
     1
  9
$DRAGMODE
 70
     2
  9
$LTSCALE
 40
1.0
  9
$OSMODE
 70
     0
  9
$ATTMODE
 70
     1
  9
$TEXTSIZE
 40
0.2
  9
$TRACEWID
 40
0.05
  9
$TEXTSTYLE
  7
STANDARD
  9
$CLAYER
  8
0
  9
$CELTYPE
  6
BYLAYER
  9
$CECOLOR
 62
   256
  9
$CELTSCALE
 40
1.0
  9
$DELOBJ
 70
     1
  9
$DISPSILH
 70
     0
  9
$DIMSCALE
 40
1.0
  9
$DIMASZ
 40
0.18
  9
$DIMEXO
 40
0.0625
  9
$DIMDLI
 40
0.38
  9
$DIMRND
 40
0.0
  9
$DIMDLE
 40
0.0
  9
$DIMEXE
 40
0.18
  9
$DIMTP
 40
0.0
  9
$DIMTM
 40
0.0
  9
$DIMTXT
 40
0.18
  9
$DIMCEN
 40
0.09
  9
$DIMTSZ
 40
0.0
  9
$DIMTOL
 70
     0
  9
$DIMLIM
 70
     0
  9
$DIMTIH
 70
     0
  9
$DIMTOH
 70
     0
  9
$DIMSE1
 70
     0
  9
$DIMSE2
 70
     0
  9
$DIMTAD
 70
     1
  9
$DIMZIN
 70
     0
  9
$DIMBLK
  1

  9
$DIMASO
 70
     1
  9
$DIMSHO
 70
     1
  9
$DIMPOST
  1

  9
$DIMAPOST
  1

  9
$DIMALT
 70
     0
  9
$DIMALTD
 70
     2
  9
$DIMALTF
 40
25.4
  9
$DIMLFAC
 40
1.0
  9
$DIMTOFL
 70
     0
  9
$DIMTVP
 40
0.0
  9
$DIMTIX
 70
     0
  9
$DIMSOXD
 70
     0
  9
$DIMSAH
 70
     0
  9
$DIMBLK1
  1

  9
$DIMBLK2
  1

  9
$DIMSTYLE
  2
STANDARD
  9
$DIMCLRD
 70
     0
  9
$DIMCLRE
 70
     0
  9
$DIMCLRT
 70
     0
  9
$DIMTFAC
 40
1.0
  9
$DIMGAP
 40
0.09
  9
$DIMJUST
 70
     0
  9
$DIMSD1
 70
     0
  9
$DIMSD2
 70
     0
  9
$DIMTOLJ
 70
     1
  9
$DIMTZIN
 70
     0
  9
$DIMALTZ
 70
     0
  9
$DIMALTTZ
 70
     0
  9
$DIMFIT
 70
     3
  9
$DIMUPT
 70
     0
  9
$DIMUNIT
 70
     2
  9
$DIMDEC
 70
     2
  9
$DIMTDEC
 70
     4
  9
$DIMALTU
 70
     2
  9
$DIMALTTD
 70
     2
  9
$DIMTXSTY
  7
STANDARD
  9
$DIMAUNIT
 70
     0
  9
$LUNITS
 70
     2
  9
$LUPREC
 70
     4
  9
$SKETCHINC
 40
0.1
  9
$FILLETRAD
 40
0.5
  9
$AUNITS
 70
     0
  9
$AUPREC
 70
     0
  9
$MENU
  1
.
  9
$ELEVATION
 40
0.0
  9
$PELEVATION
 40
0.0
  9
$THICKNESS
 40
0.0
  9
$LIMCHECK
 70
     0
  9
$BLIPMODE
 70
     0
  9
$CHAMFERA
 40
0.5
  9
$CHAMFERB
 40
0.5
  9
$CHAMFERC
 40
1.0
  9
$CHAMFERD
 40
0.0
  9
$SKPOLY
 70
     0
  9
$TDCREATE
 40
2450772.666465926
  9
$TDUPDATE
 40
2458955.000856482
  9
$TDINDWG
 40
0.0011564931
  9
$TDUSRTIMER
 40
0.0000000000
  9
$USRTIMER
 70
     1
  9
$ANGBASE
 50
0.0
  9
$ANGDIR
 70
     0
  9
$PDMODE
 70
     0
  9
$PDSIZE
 40
0.0
  9
$PLINEWID
 40
0.0
  9
$COORDS
 70
     1
  9
$SPLFRAME
 70
     0
  9
$SPLINETYPE
 70
     6
  9
$SPLINESEGS
 70
     8
  9
$ATTDIA
 70
     0
  9
$ATTREQ
 70
     1
  9
$HANDLING
 70
     1
  9
$HANDSEED
  5
18A
  9
$SURFTAB1
 70
     6
  9
$SURFTAB2
 70
     6
  9
$SURFTYPE
 70
     6
  9
$SURFU
 70
     6
  9
$SURFV
 70
     6
  9
$UCSNAME
  2

  9
$UCSORG
 10
0.0
 20
0.0
 30
0.0
  9
$UCSXDIR
 10
1.0
 20
0.0
 30
0.0
  9
$UCSYDIR
 10
0.0
 20
1.0
 30
0.0
  9
$PUCSNAME
  2

  9
$PUCSORG
 10
0.0
 20
0.0
 30
0.0
  9
$PUCSXDIR
 10
1.0
 20
0.0
 30
0.0
  9
$PUCSYDIR
 10
0.0
 20
1.0
 30
0.0
  9
$USERI1
 70
     0
  9
$USERI2
 70
     0
  9
$USERI3
 70
     0
  9
$USERI4
 70
     0
  9
$USERI5
 70
     0
  9
$USERR1
 40
0.0
  9
$USERR2
 40
0.0
  9
$USERR3
 40
0.0
  9
$USERR4
 40
0.0
  9
$USERR5
 40
0.0
  9
$WORLDVIEW
 70
     1
  9
$SHADEDGE
 70
     3
  9
$SHADEDIF
 70
    70
  9
$TILEMODE
 70
     1
  9
$MAXACTVP
 70
    48
  9
$PINSBASE
 10
0.0
 20
0.0
 30
0.0
  9
$PLIMCHECK
 70
     0
  9
$PEXTMIN
 10
0.0
 20
0.0
 30
0.0
  9
$PEXTMAX
 10
0.0
 20
0.0
 30
0.0
  9
$PLIMMIN
 10
0.0
 20
0.0
  9
$PLIMMAX
 10
12.0
 20
9.0
  9
$UNITMODE
 70
     0
  9
$VISRETAIN
 70
     1
  9
$PLINEGEN
 70
     0
  9
$PSLTSCALE
 70
     1
  9
$TREEDEPTH
 70
  3020
  9
$PICKSTYLE
 70
     1
  9
$CMLSTYLE
  2
STANDARD
  9
$CMLJUST
 70
     0
  9
$CMLSCALE
 40
1.0
  9
$PROXYGRAPHICS
 70
     1
  9
$MEASUREMENT
 70
     0
  0
ENDSEC
  0
SECTION
  2
CLASSES
  0
CLASS
  1
LWPOLYLINE
  2
AcDbPolyline
  3
"AutoCAD"
 90
        0
280
     0
281
     1
  0
CLASS
  1
IMAGE
  2
AcDbRasterImage
  3
ISM
 90
      127
280
     0
281
     1
  0
CLASS
  1
OLE2FRAME
  2
AcDbOle2Frame
  3
""
 90
        0
280
     0
281
     1
  0
CLASS
  1
HATCH
  2
AcDbHatch
  3
"ACAD_SEDONA"
 90
        0
280
     0
281
     1
  0
CLASS
  1
DICTIONARYVAR
  2
AcDbDictionaryVar
  3
"AutoCAD"
 90
        0
280
     0
281
     0
  0
CLASS
  1
RASTERVARIABLES
  2
AcDbRasterVariables
  3
ISM
 90
        0
280
     0
281
     0
  0
CLASS
  1
IMAGEDEF
  2
AcDbRasterImageDef
  3
ISM
 90
        0
280
     0
281
     0
  0
CLASS
  1
IMAGEDEF_REACTOR
  2
AcDbRasterImageDefReactor
  3
ISM
 90
        1
280
     0
281
     0
  0
CLASS
  1
IDBUFFER
  2
AcDbIdBuffer
  3
"Acad"
 90
        0
280
     0
281
     0
  0
CLASS
  1
SPATIAL_FILTER
  2
AcDbSpatialFilter
  3
"Acad"
 90
        0
280
     0
281
     0
  0
CLASS
  1
XRECORD
  2
AcDbXrecord
  3
"<Built In>"
 90
        0
280
     0
281
     0
  0
CLASS
  1
SORTENTSTABLE
  2
AcDbSortentsTable
  3
"AutoCAD"
 90
        0
280
     0
281
     0
  0
CLASS
  1
LAYER_INDEX
  2
AcDbLayerIndex
  3
"Acad"
 90
        0
280
     0
281
     0
  0
CLASS
  1
SPATIAL_INDEX
  2
AcDbSpatialIndex
  3
"Acad"
 90
        0
280
     0
281
     0
  0
CLASS
  1
OBJECT_PTR
  2
CAseDLPNTableRecord
  3
"ASE-LPNTableRecord"
 90
        1
280
     0
281
     0
  0
CLASS
  1
LAYOUT
  2
AcDbLayout
  3
"AutoCAD 2000"
 90
        1
280
     0
281
     0
  0
CLASS
  1
PLOTSETTINGS
  2
AcDbPlotSettings
  3
"AutoCAD 2000"
 90
        1
280
     0
281
     0
  0
CLASS
  1
ACDBDICTIONARYWDFLT
  2
AcDbDictionaryWithDefault
  3
"AutoCAD 2000"
 90
        1
280
     0
281
     0
  0
CLASS
  1
ACDBPLACEHOLDER
  2
AcDbPlaceHolder
  3
"AutoCAD 2000"
 90
        1
280
     0
281
     0
  0
CLASS
  1
VBA_PROJECT
  2
AcDbVbaProject
  3
"acadvba"
 90
        1
280
     0
281
     0
  0
CLASS
  1
WIPEOUT
  2
AcDbWipeout
  3
WipeOut|AutoCAD Express Tool|expresstools@autodesk.com
 90
      127
280
     0
281
     1
  0
CLASS
  1
WIPEOUTVARIABLES
  2
AcDbWipeoutVariables
  3
WipeOut|AutoCAD Express Tool|expresstools@autodesk.com
 90
        0
280
     0
281
     0
  0
CLASS
  1
RTEXT
  2
RText
  3
RText|AutoCAD Express Tool|expresstools@autodesk.com
 90
        0
280
     0
281
     1
  0
CLASS
  1
ARCALIGNEDTEXT
  2
AcDbArcAlignedText
  3
ATEXT|AutoCAD Express Tool|expresstools@autodesk.com
 90
        0
280
     0
281
     1
  0
ENDSEC
  0
SECTION
  2
TABLES
  0
TABLE
  2
VPORT
  5
8
100
AcDbSymbolTable
 70
     1
  0
VPORT
  5
25
100
AcDbSymbolTableRecord
100
AcDbViewportTableRecord
  2
*ACTIVE
 70
     0
 10
0.0
 20
0.0
 11
1.0
 21
1.0
 12
105.0
 22
148.5
 13
0.0
 23
0.0
 14
0.5
 24
0.5
 15
0.5
 25
0.5
 16
0.0
 26
0.0
 36
1.0
 17
0.0
 27
0.0
 37
0.0
 40
297.0
 41
0.707071
 42
50.0
 43
0.0
 44
0.0
 50
0.0
 51
0.0
 71
     0
 72
   100
 73
     1
 74
     1
 75
     0
 76
     0
 77
     0
 78
     0
  0
ENDTAB
  0
TABLE
  2
LTYPE
  5
5
100
AcDbSymbolTable
 70
     3
  0
LTYPE
  5
12
100
AcDbSymbolTableRecord
100
AcDbLinetypeTableRecord
  2
BYBLOCK
 70
    64
  3

 72
    65
 73
     0
 40
0.0
  0
LTYPE
  5
13
100
AcDbSymbolTableRecord
100
AcDbLinetypeTableRecord
  2
BYLAYER
 70
    64
  3

 72
    65
 73
     0
 40
0.0
  0
LTYPE
  5
14
100
AcDbSymbolTableRecord
100
AcDbLinetypeTableRecord
  2
CONTINUOUS
 70
     0
  3
Solid line
 72
    65
 73
     0
 40
0.0
  0
ENDTAB
  0
TABLE
  2
LAYER
  5
2
100
AcDbSymbolTable
 70
     4
  0
LAYER
  5
E
100
AcDbSymbolTableRecord
100
AcDbLayerTableRecord
  2
0
 70
     0
 62
     7
  6
CONTINUOUS
  0
LAYER
  5
31
100
AcDbSymbolTableRecord
100
AcDbLayerTableRecord
  2
ELECTRICAL
 70
     0
 62
     7
  6
CONTINUOUS
  0
LAYER
  5
52
100
AcDbSymbolTableRecord
100
AcDbLayerTableRecord
  2
CONNECTOR
 70
     0
 62
     7
  6
CONTINUOUS
  0
LAYER
  5
E6
100
AcDbSymbolTableRecord
100
AcDbLayerTableRecord
  2
HVAC
 70
     0
 62
     7
  6
CONTINUOUS
  0
ENDTAB
  0
TABLE
  2
STYLE
  5
3
100
AcDbSymbolTable
 70
     1
  0
STYLE
  5
F
100
AcDbSymbolTableRecord
100
AcDbTextStyleTableRecord
  2
STANDARD
 70
     0
 40
0.0
 41
1.0
 50
0.0
 71
     0
 42
0.2
  3
txt.shx
  4

  0
ENDTAB
  0
TABLE
  2
VIEW
  5
6
100
AcDbSymbolTable
 70
     0
  0
ENDTAB
  0
TABLE
  2
UCS
  5
7
100
AcDbSymbolTable
 70
     0
  0
ENDTAB
  0
TABLE
  2
APPID
  5
9
100
AcDbSymbolTable
 70
     1
  0
APPID
  5
10
100
AcDbSymbolTableRecord
100
AcDbRegAppTableRecord
  2
ACAD
 70
     0
  0
ENDTAB
  0
TABLE
  2
DIMSTYLE
  5
A
100
AcDbSymbolTable
 70
     1
  0
DIMSTYLE
105
1D
100
AcDbSymbolTableRecord
100
AcDbDimStyleTableRecord
  2
STANDARD
 70
     0
  3

  4

  5

  6

  7

 40
1.0
 41
0.18
 42
0.0625
 43
0.38
 44
0.18
 45
0.0
 46
0.0
 47
0.0
 48
0.0
 71
     0
 72
     0
 73
     1
 74
     1
 75
     0
 76
     0
 77
     0
 78
     0
140
0.18
141
0.09
142
0.0
143
25.4
144
1.0
145
0.0
146
1.0
147
0.09
170
     0
171
     2
172
     0
173
     0
174
     0
175
     0
176
     0
177
     0
178
     0
270
     2
271
     4
272
     4
273
     2
274
     2
275
     0
280
     0
281
     0
282
     0
283
     1
284
     0
285
     0
286
     0
287
     3
288
     0
340
F
  0
ENDTAB
  0
TABLE
  2
BLOCK_RECORD
  5
1
100
AcDbSymbolTable
 70
     7
  0
BLOCK_RECORD
  5
18
100
AcDbSymbolTableRecord
100
AcDbBlockTableRecord
  2
*MODEL_SPACE
  0
BLOCK_RECORD
  5
15
100
AcDbSymbolTableRecord
100
AcDbBlockTableRecord
  2
*PAPER_SPACE
  0
BLOCK_RECORD
  5
15B
100
AcDbSymbolTableRecord
100
AcDbBlockTableRecord
  2
CIRCLE
  0
BLOCK_RECORD
  5
160
100
AcDbSymbolTableRecord
100
AcDbBlockTableRecord
  2
RECTANGLE
  0
BLOCK_RECORD
  5
165
100
AcDbSymbolTableRecord
100
AcDbBlockTableRecord
  2
FUSE
  0
BLOCK_RECORD
  5
16B
100
AcDbSymbolTableRecord
100
AcDbBlockTableRecord
  2
SPST
  0
BLOCK_RECORD
  5
171
100
AcDbSymbolTableRecord
100
AcDbBlockTableRecord
  2
DYNAMIC_CONNECTOR
  0
BLOCK_RECORD
  5
175
100
AcDbSymbolTableRecord
100
AcDbBlockTableRecord
  2
AXIAL_FAN
  0
BLOCK_RECORD
  5
17E
100
AcDbSymbolTableRecord
100
AcDbBlockTableRecord
  2
INDUCTOR
  0
ENDTAB
  0
ENDSEC
  0
SECTION
  2
BLOCKS
  0
BLOCK
  5
19
100
AcDbEntity
  8
0
100
AcDbBlockBegin
  2
*MODEL_SPACE
 70
     0
 10
0.0
 20
0.0
 30
0.0
  3
*MODEL_SPACE
  1

  0
ENDBLK
  5
1A
100
AcDbEntity
  8
0
100
AcDbBlockEnd
  0
BLOCK
  5
16
100
AcDbEntity
 67
     1
  8
0
100
AcDbBlockBegin
  2
*PAPER_SPACE
 70
     0
 10
0.0
 20
0.0
 30
0.0
  3
*PAPER_SPACE
  1

  0
ENDBLK
  5
17
100
AcDbEntity
 67
     1
  8
0
100
AcDbBlockEnd
  0
BLOCK
  5
15C
100
AcDbEntity
  8
0
100
AcDbBlockBegin
  2
CIRCLE
 70
     0
 10
0.0
 20
0.0
 30
0.0
  3
CIRCLE
  1

  0
LWPOLYLINE
  5
15D
102
{ACAD_REACTORS
330
15E
102
}
100
AcDbEntity
  8
0
  6
CONTINUOUS
 62
     7
100
AcDbPolyline
 90
        2
 70
     1
 10
30.0
 20
50.0
 42
-1.0
 10
70.0
 20
50.0
 42
-1.0
  0
HATCH
  5
15E
100
AcDbEntity
  8
0
 62
   254
100
AcDbHatch
 10
0.0
 20
0.0
 30
0.0
210
0.0
220
0.0
230
1.0
  2
SOLID
 70
     1
 71
     1
 91
        1
 92
        3
 72
     1
 73
     1
 93
        2
 10
30.000000000000004
 20
50.0
 42
-0.9999999999999999
 10
70.0
 20
50.0
 42
-1.0000000000000071
 97
       12
330
46
330
47
330
4F
330
50
330
6D
330
6E
330
E7
330
E8
330
E9
330
EA
330
EC
330
15D
 75
     0
 76
     1
 98
        0
  0
ENDBLK
  5
15F
100
AcDbEntity
  8
0
100
AcDbBlockEnd
  0
BLOCK
  5
161
100
AcDbEntity
  8
0
100
AcDbBlockBegin
  2
RECTANGLE
 70
     0
 10
0.0
 20
0.0
 30
0.0
  3
RECTANGLE
  1

  0
LWPOLYLINE
  5
162
102
{ACAD_REACTORS
330
163
102
}
100
AcDbEntity
  8
0
  6
CONTINUOUS
 62
     7
100
AcDbPolyline
 90
        4
 70
     1
 10
30.0
 20
35.0
 10
70.0
 20
35.0
 10
70.0
 20
65.0
 10
30.0
 20
65.0
  0
HATCH
  5
163
100
AcDbEntity
  8
0
 62
   254
100
AcDbHatch
 10
0.0
 20
0.0
 30
0.0
210
0.0
220
0.0
230
1.0
  2
SOLID
 70
     1
 71
     1
 91
        1
 92
        3
 72
     0
 73
     1
 93
        4
 10
30.0
 20
35.0
 10
70.0
 20
35.0
 10
70.0
 20
65.000000000000014
 10
30.0
 20
65.000000000000014
 97
        1
330
162
 75
     0
 76
     1
 98
        0
  0
ENDBLK
  5
164
100
AcDbEntity
  8
0
100
AcDbBlockEnd
  0
BLOCK
  5
166
100
AcDbEntity
  8
0
100
AcDbBlockBegin
  2
FUSE
 70
     0
 10
0.0
 20
0.0
 30
0.0
  3
FUSE
  1

  0
LWPOLYLINE
  5
167
100
AcDbEntity
  8
ELECTRICAL
  6
CONTINUOUS
100
AcDbPolyline
 90
        2
 70
     1
 10
20.0
 20
22.5
 42
1.0
 10
20.0
 20
21.5
 42
1.0
  0
LWPOLYLINE
  5
168
100
AcDbEntity
  8
ELECTRICAL
  6
CONTINUOUS
100
AcDbPolyline
 90
        2
 70
     1
 10
20.0
 20
17.5
 42
1.0
 10
20.0
 20
18.5
 42
1.0
  0
LWPOLYLINE
  5
169
100
AcDbEntity
  8
ELECTRICAL
  6
CONTINUOUS
100
AcDbPolyline
 90
        3
 70
     0
 10
20.353553
 20
21.646447
 42
-0.475065
 10
20.0
 20
20.0
 42
0.475065
 10
19.646447
 20
18.353553
  0
ENDBLK
  5
16A
100
AcDbEntity
  8
0
100
AcDbBlockEnd
  0
BLOCK
  5
16C
100
AcDbEntity
  8
0
100
AcDbBlockBegin
  2
SPST
 70
     0
 10
0.0
 20
0.0
 30
0.0
  3
SPST
  1

  0
LWPOLYLINE
  5
16D
100
AcDbEntity
  8
ELECTRICAL
  6
CONTINUOUS
100
AcDbPolyline
 90
        2
 70
     1
 10
18.685269
 20
21.712373
 42
1.000728
 10
19.309939
 20
21.712373
 42
1.000728
  0
LWPOLYLINE
  5
16E
100
AcDbEntity
  8
ELECTRICAL
  6
CONTINUOUS
100
AcDbPolyline
 90
        2
 70
     1
 10
13.687914
 20
21.712373
 42
1.000728
 10
14.312584
 20
21.712373
 42
1.000728
  0
LINE
  5
16F
100
AcDbEntity
  8
ELECTRICAL
  6
CONTINUOUS
100
AcDbLine
 10
14.292955
 20
21.833563
 30
0.0
 11
18.373743
 21
23.28125
 31
0.0
  0
ENDBLK
  5
170
100
AcDbEntity
  8
0
100
AcDbBlockEnd
  0
BLOCK
  5
172
100
AcDbEntity
  8
0
100
AcDbBlockBegin
  2
DYNAMIC_CONNECTOR
 70
     0
 10
0.0
 20
0.0
 30
0.0
  3
DYNAMIC_CONNECTOR
  1

  0
LWPOLYLINE
  5
173
100
AcDbEntity
  8
ELECTRICAL
  6
CONTINUOUS
100
AcDbPolyline
 90
        3
 70
     0
 10
30.0
 20
60.0
 10
30.0
 20
30.0
 10
60.0
 20
30.0
  0
ENDBLK
  5
174
100
AcDbEntity
  8
0
100
AcDbBlockEnd
  0
BLOCK
  5
176
100
AcDbEntity
  8
0
100
AcDbBlockBegin
  2
AXIAL_FAN
 70
     0
 10
0.0
 20
0.0
 30
0.0
  3
AXIAL_FAN
  1

  0
ELLIPSE
  5
177
100
AcDbEntity
  8
ELECTRICAL
  6
CONTINUOUS
 62
     7
100
AcDbEllipse
 10
27.862518
 20
25.977067
 30
0.0
 11
-2.2731415423580961
 21
-3.2463825627613763
 31
0.0
210
0.0
220
0.0
230
1.0
 40
0.555556
 41
-1.652290409347243
 42
0.3108641612850899
  0
ELLIPSE
  5
178
100
AcDbEntity
  8
ELECTRICAL
  6
CONTINUOUS
 62
     7
100
AcDbEllipse
 10
24.637482
 20
25.977067
 30
0.0
 11
2.273141542358053
 21
-3.2463825627613634
 31
0.0
210
0.0
220
0.0
230
1.0
 40
0.555556
 41
-0.3108641612850887
 42
1.652290409347257
  0
ELLIPSE
  5
179
100
AcDbEntity
  8
ELECTRICAL
  6
CONTINUOUS
 62
     7
100
AcDbEllipse
 10
27.862518
 20
29.022933
 30
0.0
 11
2.2731415423580561
 21
-3.2463825627613683
 31
0.0
210
0.0
220
0.0
230
1.0
 40
0.555556
 41
2.8307284923047056
 42
4.7938830629370637
  0
ELLIPSE
  5
17A
100
AcDbEntity
  8
ELECTRICAL
  6
CONTINUOUS
 62
     7
100
AcDbEllipse
 10
24.637482
 20
29.022933
 30
0.0
 11
-2.2731415423580992
 21
-3.2463825627613803
 31
0.0
210
0.0
220
0.0
230
1.0
 40
0.555556
 41
1.4893022442425514
 42
3.4524568148748975
  0
LINE
  5
17B
100
AcDbEntity
  8
ELECTRICAL
  6
CONTINUOUS
 62
     7
100
AcDbLine
 10
26.25
 20
27.5
 30
0.0
 11
22.5
 21
27.5
 31
0.0
  0
LWPOLYLINE
  5
17C
100
AcDbEntity
  8
ELECTRICAL
  6
CONTINUOUS
 62
     7
100
AcDbPolyline
 90
        4
 70
     1
 10
17.5
 20
25.0
 10
17.5
 20
30.0
 10
22.5
 20
30.0
 10
22.5
 20
25.0
  0
ENDBLK
  5
17D
100
AcDbEntity
  8
0
100
AcDbBlockEnd
  0
BLOCK
  5
17F
100
AcDbEntity
  8
0
100
AcDbBlockBegin
  2
INDUCTOR
 70
     2
 10
0.0
 20
0.0
 30
0.0
  3
INDUCTOR
  1

  0
ATTDEF
  5
180
100
AcDbEntity
  8
0
100
AcDbText
 10
20.0
 20
33.75
 30
0.0
 40
0.2
  1
Air
100
AcDbAttributeDefinition
  3
Core
  2
CORE
 70
     0
  0
ATTDEF
  5
181
100
AcDbEntity
  8
0
100
AcDbText
 10
20.0
 20
33.75
 30
0.0
 40
0.2
  1
Fixed
100
AcDbAttributeDefinition
  3
Adjustability
  2
ADJUSTABILITY
 70
     0
  0
ATTDEF
  5
182
100
AcDbEntity
  8
0
100
AcDbText
 10
20.0
 20
33.75
 30
0.0
 40
0.2
  1
0
100
AcDbAttributeDefinition
  3
Taps
  2
TAPS
 70
     0
  0
ELLIPSE
  5
183
100
AcDbEntity
  8
ELECTRICAL
  6
CONTINUOUS
100
AcDbEllipse
 10
16.25
 20
33.057648
 30
0.0
 11
0.0
 21
-1.4423520191846331
 31
0.0
210
0.0
220
0.0
230
1.0
 40
0.867333
 41
1.5308176396716056
 42
4.7523676675079951
  0
ELLIPSE
  5
184
100
AcDbEntity
  8
ELECTRICAL
  6
CONTINUOUS
100
AcDbEllipse
 10
18.75
 20
33.057648
 30
0.0
 11
0.0
 21
-1.4423520191846331
 31
0.0
210
0.0
220
0.0
230
1.0
 40
0.867333
 41
1.530817639671606
 42
4.7523676675079942
  0
ELLIPSE
  5
185
100
AcDbEntity
  8
ELECTRICAL
  6
CONTINUOUS
100
AcDbEllipse
 10
21.25
 20
33.057648
 30
0.0
 11
0.0
 21
-1.4423520191846331
 31
0.0
210
0.0
220
0.0
230
1.0
 40
0.867333
 41
1.530817639671606
 42
4.7523676675079942
  0
ELLIPSE
  5
186
100
AcDbEntity
  8
ELECTRICAL
  6
CONTINUOUS
100
AcDbEllipse
 10
23.75
 20
33.057648
 30
0.0
 11
0.0
 21
-1.4423520191846357
 31
0.0
210
0.0
220
0.0
230
1.0
 40
0.867333
 41
1.5308176396716058
 42
4.7523676675079951
  0
LINE
  5
187
100
AcDbEntity
  8
ELECTRICAL
  6
CONTINUOUS
100
AcDbLine
 10
15.0
 20
33.0
 30
0.0
 11
15.0
 21
30.0
 31
0.0
  0
LINE
  5
188
100
AcDbEntity
  8
ELECTRICAL
  6
CONTINUOUS
100
AcDbLine
 10
25.0
 20
33.0
 30
0.0
 11
25.0
 21
30.0
 31
0.0
  0
ENDBLK
  5
189
100
AcDbEntity
  8
0
100
AcDbBlockEnd
  0
ENDSEC
  0
SECTION
  2
ENTITIES
  0
MTEXT
  5
32
100
AcDbEntity
  8
ELECTRICAL
100
AcDbMText
 10
58.5
 20
284.647222
 30
0.0
 40
4.622974
 41
97.0
 71
     2
 72
     5
  1
\C7;\fArial|b0|i0|;\H4.6229736328125;CNC Control Box Power Routing
  0
LWPOLYLINE
  5
34
102
{ACAD_REACTORS
330
33
102
}
100
AcDbEntity
  8
0
  6
CONTINUOUS
 62
     7
100
AcDbPolyline
 90
        4
 70
     1
 10
15.0
 20
224.999964
 10
25.0
 20
224.999964
 10
25.0
 20
254.999964
 10
15.0
 20
254.999964
  0
LWPOLYLINE
  5
35
102
{ACAD_REACTORS
330
33
102
}
100
AcDbEntity
  8
0
  6
CONTINUOUS
 62
     7
100
AcDbPolyline
 90
        2
 70
     1
 10
18.0
 20
249.999964
 42
-1.0
 10
22.0
 20
249.999964
 42
-1.0
  0
MTEXT
  5
36
100
AcDbEntity
  8
0
100
AcDbMText
 10
20.0
 20
249.999964
 30
0.0
 40
2.054647
 41
3.5
 71
     5
 72
     5
  1
\C7;\fArial|b0|i0|;\H2.0546471100301;L
  0
LWPOLYLINE
  5
37
102
{ACAD_REACTORS
330
33
102
}
100
AcDbEntity
  8
0
  6
CONTINUOUS
 62
     7
100
AcDbPolyline
 90
        2
 70
     1
 10
18.0
 20
239.999964
 42
-1.0
 10
22.0
 20
239.999964
 42
-1.0
  0
MTEXT
  5
38
100
AcDbEntity
  8
0
100
AcDbMText
 10
20.0
 20
239.999964
 30
0.0
 40
2.054647
 41
3.5
 71
     5
 72
     5
  1
\C7;\fArial|b0|i0|;\H2.0546471100301;N
  0
LWPOLYLINE
  5
39
102
{ACAD_REACTORS
330
33
102
}
100
AcDbEntity
  8
0
  6
CONTINUOUS
 62
     7
100
AcDbPolyline
 90
        2
 70
     1
 10
18.0
 20
229.999964
 42
-1.0
 10
22.0
 20
229.999964
 42
-1.0
  0
MTEXT
  5
3A
100
AcDbEntity
  8
0
100
AcDbMText
 10
20.0
 20
229.999964
 30
0.0
 40
2.054647
 41
3.5
 71
     5
 72
     5
  1
\C7;\fArial|b0|i0|;\H2.0546471100301;E
  0
MTEXT
  5
3B
100
AcDbEntity
  8
0
100
AcDbMText
 10
20.0
 20
265.075658
 30
0.0
 40
3.082006
 41
14.886111
 71
     2
 72
     5
  1
\C7;\fArial|b0|i0|;\H3.0820059355348;Mains\PInput
  0
MTEXT
  5
3D
100
AcDbEntity
  8
0
100
AcDbMText
 10
51.5
 20
264.742325
 30
0.0
 40
3.082006
 41
14.969444
 71
     2
 72
     5
  1
\C7;\fArial|b0|i0|;\H3.0820059355348;Mains\PSwitch
  0
LWPOLYLINE
  5
3E
102
{ACAD_REACTORS
330
3C
102
}
100
AcDbEntity
  8
0
  6
CONTINUOUS
 62
     7
100
AcDbPolyline
 90
        4
 70
     1
 10
35.0
 20
224.999964
 10
68.0
 20
224.999964
 10
68.0
 20
254.999964
 10
35.0
 20
254.999964
  0
LWPOLYLINE
  5
3F
102
{ACAD_REACTORS
330
3C
102
}
100
AcDbEntity
  8
0
  6
CONTINUOUS
 62
     7
100
AcDbPolyline
 90
        2
 70
     1
 10
61.0
 20
249.999964
 42
-1.0
 10
65.0
 20
249.999964
 42
-1.0
  0
MTEXT
  5
40
100
AcDbEntity
  8
0
100
AcDbMText
 10
63.0
 20
249.999964
 30
0.0
 40
2.054647
 41
3.5
 71
     5
 72
     5
  1
\C7;\fArial|b0|i0|;\H2.0546471100301;L
  0
LWPOLYLINE
  5
41
102
{ACAD_REACTORS
330
3C
102
}
100
AcDbEntity
  8
0
  6
CONTINUOUS
 62
     7
100
AcDbPolyline
 90
        2
 70
     1
 10
61.0
 20
239.999964
 42
-1.0
 10
65.0
 20
239.999964
 42
-1.0
  0
MTEXT
  5
42
100
AcDbEntity
  8
0
100
AcDbMText
 10
63.0
 20
239.999964
 30
0.0
 40
2.054647
 41
3.5
 71
     5
 72
     5
  1
\C7;\fArial|b0|i0|;\H2.0546471100301;N
  0
LWPOLYLINE
  5
43
102
{ACAD_REACTORS
330
3C
102
}
100
AcDbEntity
  8
0
  6
CONTINUOUS
 62
     7
100
AcDbPolyline
 90
        2
 70
     1
 10
61.0
 20
229.999964
 42
-1.0
 10
65.0
 20
229.999964
 42
-1.0
  0
MTEXT
  5
44
100
AcDbEntity
  8
0
100
AcDbMText
 10
63.0
 20
229.999964
 30
0.0
 40
2.054647
 41
3.5
 71
     5
 72
     5
  1
\C7;\fArial|b0|i0|;\H2.0546471100301;E
  0
MTEXT
  5
45
100
AcDbEntity
  8
0
100
AcDbMText
 10
47.0
 20
248.647186
 30
0.0
 40
1.540968
 41
5.325439
 71
     2
 72
     5
  1
\C7;\fArial|b0|i0|;\H1.5409676972777;10A
  0
LWPOLYLINE
  5
46
102
{ACAD_REACTORS
330
3C
102
}
100
AcDbEntity
  8
ELECTRICAL
  6
CONTINUOUS
100
AcDbPolyline
 90
        2
 70
     1
 10
44.5
 20
249.999964
 42
1.0
 10
45.5
 20
249.999964
 42
1.0
  0
LWPOLYLINE
  5
47
102
{ACAD_REACTORS
330
3C
102
}
100
AcDbEntity
  8
ELECTRICAL
  6
CONTINUOUS
100
AcDbPolyline
 90
        2
 70
     1
 10
49.5
 20
249.999964
 42
1.0
 10
48.5
 20
249.999964
 42
1.0
  0
LWPOLYLINE
  5
48
102
{ACAD_REACTORS
330
3C
102
}
100
AcDbEntity
  8
ELECTRICAL
  6
CONTINUOUS
100
AcDbPolyline
 90
        3
 70
     0
 10
45.353553
 20
250.353517
 42
-0.475065
 10
47.0
 20
249.999964
 42
0.475065
 10
48.646447
 20
249.64641
  0
LWPOLYLINE
  5
49
102
{ACAD_REACTORS
330
3C
102
}
100
AcDbEntity
  8
0
  6
CONTINUOUS
 62
     7
100
AcDbPolyline
 90
        2
 70
     1
 10
38.0
 20
249.999964
 42
-1.0
 10
42.0
 20
249.999964
 42
-1.0
  0
MTEXT
  5
4A
100
AcDbEntity
  8
0
100
AcDbMText
 10
40.0
 20
249.999964
 30
0.0
 40
2.054647
 41
3.5
 71
     5
 72
     5
  1
\C7;\fArial|b0|i0|;\H2.0546471100301;L
  0
LWPOLYLINE
  5
4B
102
{ACAD_REACTORS
330
3C
102
}
100
AcDbEntity
  8
0
  6
CONTINUOUS
 62
     7
100
AcDbPolyline
 90
        2
 70
     1
 10
38.0
 20
239.999964
 42
-1.0
 10
42.0
 20
239.999964
 42
-1.0
  0
MTEXT
  5
4C
100
AcDbEntity
  8
0
100
AcDbMText
 10
40.0
 20
239.999964
 30
0.0
 40
2.054647
 41
3.5
 71
     5
 72
     5
  1
\C7;\fArial|b0|i0|;\H2.0546471100301;N
  0
LWPOLYLINE
  5
4D
102
{ACAD_REACTORS
330
3C
102
}
100
AcDbEntity
  8
0
  6
CONTINUOUS
 62
     7
100
AcDbPolyline
 90
        2
 70
     1
 10
38.0
 20
229.999964
 42
-1.0
 10
42.0
 20
229.999964
 42
-1.0
  0
MTEXT
  5
4E
100
AcDbEntity
  8
0
100
AcDbMText
 10
40.0
 20
229.999964
 30
0.0
 40
2.054647
 41
3.5
 71
     5
 72
     5
  1
\C7;\fArial|b0|i0|;\H2.0546471100301;E
  0
LWPOLYLINE
  5
4F
102
{ACAD_REACTORS
330
3C
102
}
100
AcDbEntity
  8
ELECTRICAL
  6
CONTINUOUS
100
AcDbPolyline
 90
        2
 70
     1
 10
57.685269
 20
249.993586
 42
1.000728
 10
58.309939
 20
249.993586
 42
1.000728
  0
LWPOLYLINE
  5
50
102
{ACAD_REACTORS
330
3C
102
}
100
AcDbEntity
  8
ELECTRICAL
  6
CONTINUOUS
100
AcDbPolyline
 90
        2
 70
     1
 10
52.687914
 20
249.993586
 42
1.000728
 10
53.312584
 20
249.993586
 42
1.000728
  0
LINE
  5
51
102
{ACAD_REACTORS
330
3C
102
}
100
AcDbEntity
  8
ELECTRICAL
  6
CONTINUOUS
100
AcDbLine
 10
53.292955
 20
250.114776
 30
0.0
 11
57.373743
 21
251.562464
 31
0.0
  0
LINE
  5
53
102
{ACAD_REACTORS
330
3C
102
}
100
AcDbEntity
  8
CONNECTOR
  6
CONTINUOUS
100
AcDbLine
 10
42.0
 20
249.999964
 30
0.0
 11
45.0
 21
249.999964
 31
0.0
  0
LINE
  5
54
102
{ACAD_REACTORS
330
3C
102
}
100
AcDbEntity
  8
CONNECTOR
  6
CONTINUOUS
100
AcDbLine
 10
49.0
 20
249.999964
 30
0.0
 11
53.0
 21
249.999964
 31
0.0
  0
LINE
  5
55
102
{ACAD_REACTORS
330
3C
102
}
100
AcDbEntity
  8
CONNECTOR
  6
CONTINUOUS
100
AcDbLine
 10
58.0
 20
249.999964
 30
0.0
 11
61.0
 21
249.999964
 31
0.0
  0
LINE
  5
56
102
{ACAD_REACTORS
330
3C
102
}
100
AcDbEntity
  8
CONNECTOR
  6
CONTINUOUS
100
AcDbLine
 10
42.0
 20
239.999964
 30
0.0
 11
61.0
 21
239.999964
 31
0.0
  0
LINE
  5
57
102
{ACAD_REACTORS
330
3C
102
}
100
AcDbEntity
  8
CONNECTOR
  6
CONTINUOUS
100
AcDbLine
 10
42.0
 20
229.999964
 30
0.0
 11
61.0
 21
229.999964
 31
0.0
  0
LINE
  5
58
100
AcDbEntity
  8
0
  6
CONTINUOUS
 62
    22
100
AcDbLine
 10
18.0
 20
249.999964
 30
0.0
 11
9.0
 21
249.999964
 31
0.0
  0
LINE
  5
59
100
AcDbEntity
  8
0
  6
CONTINUOUS
 62
   150
100
AcDbLine
 10
18.0
 20
239.999964
 30
0.0
 11
9.0
 21
239.999964
 31
0.0
  0
LINE
  5
5A
100
AcDbEntity
  8
0
  6
CONTINUOUS
 62
    94
100
AcDbLine
 10
18.0
 20
229.999964
 30
0.0
 11
9.0
 21
229.999964
 31
0.0
  0
LINE
  5
5B
100
AcDbEntity
  8
0
  6
CONTINUOUS
 62
    22
100
AcDbLine
 10
22.0
 20
249.999964
 30
0.0
 11
38.0
 21
249.999964
 31
0.0
  0
LINE
  5
5C
100
AcDbEntity
  8
0
  6
CONTINUOUS
 62
   150
100
AcDbLine
 10
22.0
 20
239.999964
 30
0.0
 11
38.0
 21
239.999964
 31
0.0
  0
LINE
  5
5D
100
AcDbEntity
  8
0
  6
CONTINUOUS
 62
    94
100
AcDbLine
 10
22.0
 20
229.999964
 30
0.0
 11
38.0
 21
229.999964
 31
0.0
  0
MTEXT
  5
5F
100
AcDbEntity
  8
0
100
AcDbMText
 10
113.5
 20
264.742325
 30
0.0
 40
3.082006
 41
14.969444
 71
     2
 72
     5
  1
\C7;\fArial|b0|i0|;\H3.0820059355348;NVR\PSwitch
  0
LWPOLYLINE
  5
60
102
{ACAD_REACTORS
330
5E
102
}
100
AcDbEntity
  8
0
  6
CONTINUOUS
 62
     7
100
AcDbPolyline
 90
        4
 70
     1
 10
101.0
 20
224.999964
 10
126.0
 20
224.999964
 10
126.0
 20
254.999964
 10
101.0
 20
254.999964
  0
LWPOLYLINE
  5
61
102
{ACAD_REACTORS
330
5E
102
}
100
AcDbEntity
  8
0
  6
CONTINUOUS
 62
     7
100
AcDbPolyline
 90
        2
 70
     1
 10
119.0
 20
249.999964
 42
-1.0
 10
123.0
 20
249.999964
 42
-1.0
  0
MTEXT
  5
62
100
AcDbEntity
  8
0
100
AcDbMText
 10
121.0
 20
249.999964
 30
0.0
 40
2.054647
 41
3.5
 71
     5
 72
     5
  1
\C7;\fArial|b0|i0|;\H2.0546471100301;L
  0
LWPOLYLINE
  5
63
102
{ACAD_REACTORS
330
5E
102
}
100
AcDbEntity
  8
0
  6
CONTINUOUS
 62
     7
100
AcDbPolyline
 90
        2
 70
     1
 10
119.0
 20
239.999964
 42
-1.0
 10
123.0
 20
239.999964
 42
-1.0
  0
MTEXT
  5
64
100
AcDbEntity
  8
0
100
AcDbMText
 10
121.0
 20
239.999964
 30
0.0
 40
2.054647
 41
3.5
 71
     5
 72
     5
  1
\C7;\fArial|b0|i0|;\H2.0546471100301;N
  0
LWPOLYLINE
  5
65
102
{ACAD_REACTORS
330
5E
102
}
100
AcDbEntity
  8
0
  6
CONTINUOUS
 62
     7
100
AcDbPolyline
 90
        2
 70
     1
 10
119.0
 20
229.999964
 42
-1.0
 10
123.0
 20
229.999964
 42
-1.0
  0
MTEXT
  5
66
100
AcDbEntity
  8
0
100
AcDbMText
 10
121.0
 20
229.999964
 30
0.0
 40
2.054647
 41
3.5
 71
     5
 72
     5
  1
\C7;\fArial|b0|i0|;\H2.0546471100301;E
  0
LWPOLYLINE
  5
67
102
{ACAD_REACTORS
330
5E
102
}
100
AcDbEntity
  8
0
  6
CONTINUOUS
 62
     7
100
AcDbPolyline
 90
        2
 70
     1
 10
104.0
 20
249.999964
 42
-1.0
 10
108.0
 20
249.999964
 42
-1.0
  0
MTEXT
  5
68
100
AcDbEntity
  8
0
100
AcDbMText
 10
106.0
 20
249.999964
 30
0.0
 40
2.054647
 41
3.5
 71
     5
 72
     5
  1
\C7;\fArial|b0|i0|;\H2.0546471100301;L
  0
LWPOLYLINE
  5
69
102
{ACAD_REACTORS
330
5E
102
}
100
AcDbEntity
  8
0
  6
CONTINUOUS
 62
     7
100
AcDbPolyline
 90
        2
 70
     1
 10
104.0
 20
239.999964
 42
-1.0
 10
108.0
 20
239.999964
 42
-1.0
  0
MTEXT
  5
6A
100
AcDbEntity
  8
0
100
AcDbMText
 10
106.0
 20
239.999964
 30
0.0
 40
2.054647
 41
3.5
 71
     5
 72
     5
  1
\C7;\fArial|b0|i0|;\H2.0546471100301;N
  0
LWPOLYLINE
  5
6B
102
{ACAD_REACTORS
330
5E
102
}
100
AcDbEntity
  8
0
  6
CONTINUOUS
 62
     7
100
AcDbPolyline
 90
        2
 70
     1
 10
104.0
 20
229.999964
 42
-1.0
 10
108.0
 20
229.999964
 42
-1.0
  0
MTEXT
  5
6C
100
AcDbEntity
  8
0
100
AcDbMText
 10
106.0
 20
229.999964
 30
0.0
 40
2.054647
 41
3.5
 71
     5
 72
     5
  1
\C7;\fArial|b0|i0|;\H2.0546471100301;E
  0
LWPOLYLINE
  5
6D
102
{ACAD_REACTORS
330
5E
102
}
100
AcDbEntity
  8
ELECTRICAL
  6
CONTINUOUS
100
AcDbPolyline
 90
        2
 70
     1
 10
115.685269
 20
249.993586
 42
1.000728
 10
116.309939
 20
249.993586
 42
1.000728
  0
LWPOLYLINE
  5
6E
102
{ACAD_REACTORS
330
5E
102
}
100
AcDbEntity
  8
ELECTRICAL
  6
CONTINUOUS
100
AcDbPolyline
 90
        2
 70
     1
 10
110.687914
 20
249.993586
 42
1.000728
 10
111.312584
 20
249.993586
 42
1.000728
  0
LINE
  5
6F
102
{ACAD_REACTORS
330
5E
102
}
100
AcDbEntity
  8
ELECTRICAL
  6
CONTINUOUS
100
AcDbLine
 10
111.292955
 20
250.114776
 30
0.0
 11
115.373743
 21
251.562464
 31
0.0
  0
LINE
  5
70
102
{ACAD_REACTORS
330
5E
102
}
100
AcDbEntity
  8
CONNECTOR
  6
CONTINUOUS
100
AcDbLine
 10
108.0
 20
249.999964
 30
0.0
 11
111.0
 21
249.999964
 31
0.0
  0
LINE
  5
71
102
{ACAD_REACTORS
330
5E
102
}
100
AcDbEntity
  8
CONNECTOR
  6
CONTINUOUS
100
AcDbLine
 10
116.0
 20
249.999964
 30
0.0
 11
119.0
 21
249.999964
 31
0.0
  0
LINE
  5
72
102
{ACAD_REACTORS
330
5E
102
}
100
AcDbEntity
  8
CONNECTOR
  6
CONTINUOUS
100
AcDbLine
 10
108.0
 20
239.999964
 30
0.0
 11
119.0
 21
239.999964
 31
0.0
  0
LINE
  5
73
102
{ACAD_REACTORS
330
5E
102
}
100
AcDbEntity
  8
CONNECTOR
  6
CONTINUOUS
100
AcDbLine
 10
108.0
 20
229.999964
 30
0.0
 11
119.0
 21
229.999964
 31
0.0
  0
LWPOLYLINE
  5
75
102
{ACAD_REACTORS
330
74
102
}
100
AcDbEntity
  8
0
  6
CONTINUOUS
 62
     7
100
AcDbPolyline
 90
        4
 70
     1
 10
136.056944
 20
224.999964
 10
146.056944
 20
224.999964
 10
146.056944
 20
254.999964
 10
136.056944
 20
254.999964
  0
LWPOLYLINE
  5
76
102
{ACAD_REACTORS
330
74
102
}
100
AcDbEntity
  8
0
  6
CONTINUOUS
 62
     7
100
AcDbPolyline
 90
        2
 70
     1
 10
139.056944
 20
249.999964
 42
-1.0
 10
143.056944
 20
249.999964
 42
-1.0
  0
MTEXT
  5
77
100
AcDbEntity
  8
0
100
AcDbMText
 10
141.056944
 20
249.999964
 30
0.0
 40
2.054647
 41
3.5
 71
     5
 72
     5
  1
\C7;\fArial|b0|i0|;\H2.0546471100301;L
  0
LWPOLYLINE
  5
78
102
{ACAD_REACTORS
330
74
102
}
100
AcDbEntity
  8
0
  6
CONTINUOUS
 62
     7
100
AcDbPolyline
 90
        2
 70
     1
 10
139.056944
 20
239.999964
 42
-1.0
 10
143.056944
 20
239.999964
 42
-1.0
  0
MTEXT
  5
79
100
AcDbEntity
  8
0
100
AcDbMText
 10
141.056944
 20
239.999964
 30
0.0
 40
2.054647
 41
3.5
 71
     5
 72
     5
  1
\C7;\fArial|b0|i0|;\H2.0546471100301;N
  0
LWPOLYLINE
  5
7A
102
{ACAD_REACTORS
330
74
102
}
100
AcDbEntity
  8
0
  6
CONTINUOUS
 62
     7
100
AcDbPolyline
 90
        2
 70
     1
 10
139.056944
 20
229.999964
 42
-1.0
 10
143.056944
 20
229.999964
 42
-1.0
  0
MTEXT
  5
7B
100
AcDbEntity
  8
0
100
AcDbMText
 10
141.056944
 20
229.999964
 30
0.0
 40
2.054647
 41
3.5
 71
     5
 72
     5
  1
\C7;\fArial|b0|i0|;\H2.0546471100301;E
  0
MTEXT
  5
7C
100
AcDbEntity
  8
0
100
AcDbMText
 10
141.056944
 20
270.075658
 30
0.0
 40
3.082006
 41
14.886111
 71
     2
 72
     5
  1
\C7;\fArial|b0|i0|;\H3.0820059355348;Tool\PMains\POutput
  0
LINE
  5
7D
100
AcDbEntity
  8
0
  6
CONTINUOUS
 62
    22
100
AcDbLine
 10
123.0
 20
249.999964
 30
0.0
 11
139.056944
 21
249.999964
 31
0.0
  0
LINE
  5
7E
100
AcDbEntity
  8
0
  6
CONTINUOUS
 62
   150
100
AcDbLine
 10
123.0
 20
239.999964
 30
0.0
 11
139.056944
 21
239.999964
 31
0.0
  0
LINE
  5
7F
100
AcDbEntity
  8
0
  6
CONTINUOUS
 62
    94
100
AcDbLine
 10
123.0
 20
229.999964
 30
0.0
 11
139.056944
 21
229.999964
 31
0.0
  0
LINE
  5
80
100
AcDbEntity
  8
0
  6
CONTINUOUS
 62
    22
100
AcDbLine
 10
156.056944
 20
249.999964
 30
0.0
 11
143.056944
 21
249.999964
 31
0.0
  0
LINE
  5
81
100
AcDbEntity
  8
0
  6
CONTINUOUS
 62
   150
100
AcDbLine
 10
156.056944
 20
239.999964
 30
0.0
 11
143.056944
 21
239.999964
 31
0.0
  0
LINE
  5
82
100
AcDbEntity
  8
0
  6
CONTINUOUS
 62
    94
100
AcDbLine
 10
156.056944
 20
229.999964
 30
0.0
 11
143.056944
 21
229.999964
 31
0.0
  0
LINE
  5
83
100
AcDbEntity
  8
0
  6
CONTINUOUS
 62
    22
100
AcDbLine
 10
65.0
 20
249.999964
 30
0.0
 11
104.0
 21
249.999964
 31
0.0
  0
LINE
  5
84
100
AcDbEntity
  8
0
  6
CONTINUOUS
 62
   150
100
AcDbLine
 10
65.0
 20
239.999964
 30
0.0
 11
104.0
 21
239.999964
 31
0.0
  0
LINE
  5
85
100
AcDbEntity
  8
0
  6
CONTINUOUS
 62
    94
100
AcDbLine
 10
65.0
 20
229.999964
 30
0.0
 11
104.0
 21
229.999964
 31
0.0
  0
LWPOLYLINE
  5
87
102
{ACAD_REACTORS
330
86
102
}
100
AcDbEntity
  8
0
  6
CONTINUOUS
 62
     7
100
AcDbPolyline
 90
        4
 70
     1
 10
153.556944
 20
224.999964
 10
170.0
 20
224.999964
 10
170.0
 20
254.999964
 10
153.556944
 20
254.999964
  0
MTEXT
  5
88
100
AcDbEntity
  8
0
100
AcDbMText
 10
161.778472
 20
262.361422
 30
0.0
 40
3.082006
 41
14.886111
 71
     2
 72
     5
  1
\C7;\fArial|b0|i0|;\H3.0820059355348;VFD
  0
LWPOLYLINE
  5
89
102
{ACAD_REACTORS
330
86
102
}
100
AcDbEntity
  8
0
  6
CONTINUOUS
 62
     7
100
AcDbPolyline
 90
        2
 70
     1
 10
156.556944
 20
249.999964
 42
-1.0
 10
160.556944
 20
249.999964
 42
-1.0
  0
MTEXT
  5
8A
100
AcDbEntity
  8
0
100
AcDbMText
 10
158.556944
 20
249.999964
 30
0.0
 40
2.054647
 41
3.5
 71
     5
 72
     5
  1
\C7;\fArial|b0|i0|;\H2.0546471100301;R
  0
LWPOLYLINE
  5
8B
102
{ACAD_REACTORS
330
86
102
}
100
AcDbEntity
  8
0
  6
CONTINUOUS
 62
     7
100
AcDbPolyline
 90
        2
 70
     1
 10
156.556944
 20
239.999964
 42
-1.0
 10
160.556944
 20
239.999964
 42
-1.0
  0
MTEXT
  5
8C
100
AcDbEntity
  8
0
100
AcDbMText
 10
158.556944
 20
239.999964
 30
0.0
 40
2.054647
 41
3.5
 71
     5
 72
     5
  1
\C7;\fArial|b0|i0|;\H2.0546471100301;S
  0
LWPOLYLINE
  5
8D
102
{ACAD_REACTORS
330
86
102
}
100
AcDbEntity
  8
0
  6
CONTINUOUS
 62
     7
100
AcDbPolyline
 90
        2
 70
     1
 10
156.556944
 20
229.999964
 42
-1.0
 10
160.556944
 20
229.999964
 42
-1.0
  0
MTEXT
  5
8E
100
AcDbEntity
  8
0
100
AcDbMText
 10
158.556944
 20
229.999964
 30
0.0
 40
2.054647
 41
3.5
 71
     5
 72
     5
  1
\C7;\fArial|b0|i0|;\H2.0546471100301;E
  0
LWPOLYLINE
  5
8F
102
{ACAD_REACTORS
330
86
102
}
100
AcDbEntity
  8
0
  6
CONTINUOUS
 62
     7
100
AcDbPolyline
 90
        2
 70
     1
 10
163.0
 20
249.999964
 42
-1.0
 10
167.0
 20
249.999964
 42
-1.0
  0
MTEXT
  5
90
100
AcDbEntity
  8
0
100
AcDbMText
 10
165.0
 20
249.999964
 30
0.0
 40
2.054647
 41
3.5
 71
     5
 72
     5
  1
\C7;\fArial|b0|i0|;\H2.0546471100301;U
  0
LWPOLYLINE
  5
91
102
{ACAD_REACTORS
330
86
102
}
100
AcDbEntity
  8
0
  6
CONTINUOUS
 62
     7
100
AcDbPolyline
 90
        2
 70
     1
 10
163.0
 20
229.999964
 42
-1.0
 10
167.0
 20
229.999964
 42
-1.0
  0
MTEXT
  5
92
100
AcDbEntity
  8
0
100
AcDbMText
 10
165.0
 20
229.999964
 30
0.0
 40
2.054647
 41
3.5
 71
     5
 72
     5
  1
\C7;\fArial|b0|i0|;\H2.0546471100301;E
  0
LWPOLYLINE
  5
93
102
{ACAD_REACTORS
330
86
102
}
100
AcDbEntity
  8
0
  6
CONTINUOUS
 62
     7
100
AcDbPolyline
 90
        2
 70
     1
 10
163.0
 20
243.333297
 42
-1.0
 10
167.0
 20
243.333297
 42
-1.0
  0
MTEXT
  5
94
100
AcDbEntity
  8
0
100
AcDbMText
 10
165.0
 20
243.333297
 30
0.0
 40
2.054647
 41
3.5
 71
     5
 72
     5
  1
\C7;\fArial|b0|i0|;\H2.0546471100301;V
  0
LWPOLYLINE
  5
95
102
{ACAD_REACTORS
330
86
102
}
100
AcDbEntity
  8
0
  6
CONTINUOUS
 62
     7
100
AcDbPolyline
 90
        2
 70
     1
 10
163.0
 20
236.666631
 42
-1.0
 10
167.0
 20
236.666631
 42
-1.0
  0
MTEXT
  5
96
100
AcDbEntity
  8
0
100
AcDbMText
 10
165.0
 20
236.666631
 30
0.0
 40
2.054647
 41
3.5
 71
     5
 72
     5
  1
\C7;\fArial|b0|i0|;\H2.0546471100301;W
  0
LWPOLYLINE
  5
98
102
{ACAD_REACTORS
330
97
102
}
100
AcDbEntity
  8
0
  6
CONTINUOUS
 62
     7
100
AcDbPolyline
 90
        4
 70
     1
 10
177.556944
 20
224.999964
 10
187.556944
 20
224.999964
 10
187.556944
 20
254.999964
 10
177.556944
 20
254.999964
  0
MTEXT
  5
99
100
AcDbEntity
  8
0
100
AcDbMText
 10
182.556944
 20
262.361422
 30
0.0
 40
3.082006
 41
14.886111
 71
     2
 72
     5
  1
\C7;\fArial|b0|i0|;\H3.0820059355348;Spindle
  0
LWPOLYLINE
  5
9A
102
{ACAD_REACTORS
330
97
102
}
100
AcDbEntity
  8
0
  6
CONTINUOUS
 62
     7
100
AcDbPolyline
 90
        2
 70
     1
 10
180.556944
 20
249.999964
 42
-1.0
 10
184.556944
 20
249.999964
 42
-1.0
  0
MTEXT
  5
9B
100
AcDbEntity
  8
0
100
AcDbMText
 10
182.556944
 20
249.999964
 30
0.0
 40
2.054647
 41
3.5
 71
     5
 72
     5
  1
\C7;\fArial|b0|i0|;\H2.0546471100301;1
  0
LWPOLYLINE
  5
9C
102
{ACAD_REACTORS
330
97
102
}
100
AcDbEntity
  8
0
  6
CONTINUOUS
 62
     7
100
AcDbPolyline
 90
        2
 70
     1
 10
180.556944
 20
236.666631
 42
-1.0
 10
184.556944
 20
236.666631
 42
-1.0
  0
MTEXT
  5
9D
100
AcDbEntity
  8
0
100
AcDbMText
 10
182.556944
 20
236.666631
 30
0.0
 40
2.054647
 41
3.5
 71
     5
 72
     5
  1
\C7;\fArial|b0|i0|;\H2.0546471100301;3
  0
LWPOLYLINE
  5
9E
102
{ACAD_REACTORS
330
97
102
}
100
AcDbEntity
  8
0
  6
CONTINUOUS
 62
     7
100
AcDbPolyline
 90
        2
 70
     1
 10
180.556944
 20
229.999964
 42
-1.0
 10
184.556944
 20
229.999964
 42
-1.0
  0
MTEXT
  5
9F
100
AcDbEntity
  8
0
100
AcDbMText
 10
182.556944
 20
229.999964
 30
0.0
 40
2.054647
 41
3.5
 71
     5
 72
     5
  1
\C7;\fArial|b0|i0|;\H2.0546471100301;E
  0
LWPOLYLINE
  5
A0
102
{ACAD_REACTORS
330
97
102
}
100
AcDbEntity
  8
0
  6
CONTINUOUS
 62
     7
100
AcDbPolyline
 90
        2
 70
     1
 10
180.556944
 20
243.333297
 42
-1.0
 10
184.556944
 20
243.333297
 42
-1.0
  0
MTEXT
  5
A1
100
AcDbEntity
  8
0
100
AcDbMText
 10
182.556944
 20
243.333297
 30
0.0
 40
2.054647
 41
3.5
 71
     5
 72
     5
  1
\C7;\fArial|b0|i0|;\H2.0546471100301;2
  0
LINE
  5
A2
100
AcDbEntity
  8
0
  6
CONTINUOUS
 62
    94
100
AcDbLine
 10
180.556944
 20
229.999964
 30
0.0
 11
167.0
 21
229.999964
 31
0.0
  0
LINE
  5
A3
100
AcDbEntity
  8
0
  6
CONTINUOUS
 62
     7
100
AcDbLine
 10
167.0
 20
243.333297
 30
0.0
 11
180.556944
 21
249.999964
 31
0.0
  0
LINE
  5
A4
100
AcDbEntity
  8
0
  6
CONTINUOUS
 62
     7
100
AcDbLine
 10
167.0
 20
249.999964
 30
0.0
 11
180.556944
 21
243.333297
 31
0.0
  0
LINE
  5
A5
100
AcDbEntity
  8
0
  6
CONTINUOUS
 62
     7
100
AcDbLine
 10
167.0
 20
236.666631
 30
0.0
 11
180.556944
 21
236.666631
 31
0.0
  0
LWPOLYLINE
  5
A7
102
{ACAD_REACTORS
330
A6
102
}
100
AcDbEntity
  8
0
  6
CONTINUOUS
 62
     7
100
AcDbPolyline
 90
        4
 70
     1
 10
84.0
 20
139.999964
 10
100.0
 20
139.999964
 10
100.0
 20
184.785728
 10
84.0
 20
184.785728
  0
MTEXT
  5
A8
100
AcDbEntity
  8
0
100
AcDbMText
 10
92.0
 20
194.647186
 30
0.0
 40
3.082006
 41
14.886111
 71
     2
 72
     5
  1
\C7;\fArial|b0|i0|;\H3.0820059355348;36V \PPSU
  0
LWPOLYLINE
  5
A9
102
{ACAD_REACTORS
330
A6
102
}
100
AcDbEntity
  8
0
  6
CONTINUOUS
 62
     7
100
AcDbPolyline
 90
        2
 70
     1
 10
87.0
 20
179.999964
 42
-1.0
 10
91.0
 20
179.999964
 42
-1.0
  0
MTEXT
  5
AA
100
AcDbEntity
  8
0
100
AcDbMText
 10
89.0
 20
179.999964
 30
0.0
 40
2.054647
 41
3.5
 71
     5
 72
     5
  1
\C7;\fArial|b0|i0|;\H2.0546471100301;L
  0
LWPOLYLINE
  5
AB
102
{ACAD_REACTORS
330
A6
102
}
100
AcDbEntity
  8
0
  6
CONTINUOUS
 62
     7
100
AcDbPolyline
 90
        2
 70
     1
 10
87.0
 20
169.999964
 42
-1.0
 10
91.0
 20
169.999964
 42
-1.0
  0
MTEXT
  5
AC
100
AcDbEntity
  8
0
100
AcDbMText
 10
89.0
 20
169.999964
 30
0.0
 40
2.054647
 41
3.5
 71
     5
 72
     5
  1
\C7;\fArial|b0|i0|;\H2.0546471100301;N
  0
LWPOLYLINE
  5
AD
102
{ACAD_REACTORS
330
A6
102
}
100
AcDbEntity
  8
0
  6
CONTINUOUS
 62
     7
100
AcDbPolyline
 90
        2
 70
     1
 10
87.0
 20
159.999964
 42
-1.0
 10
91.0
 20
159.999964
 42
-1.0
  0
MTEXT
  5
AE
100
AcDbEntity
  8
0
100
AcDbMText
 10
89.0
 20
159.999964
 30
0.0
 40
2.054647
 41
3.5
 71
     5
 72
     5
  1
\C7;\fArial|b0|i0|;\H2.0546471100301;E
  0
LWPOLYLINE
  5
AF
102
{ACAD_REACTORS
330
A6
102
}
100
AcDbEntity
  8
0
  6
CONTINUOUS
 62
     7
100
AcDbPolyline
 90
        2
 70
     1
 10
93.0
 20
179.999964
 42
-1.0
 10
97.0
 20
179.999964
 42
-1.0
  0
MTEXT
  5
B0
100
AcDbEntity
  8
0
100
AcDbMText
 10
95.0
 20
179.999964
 30
0.0
 40
2.054647
 41
3.5
 71
     5
 72
     5
  1
\C7;\fArial|b0|i0|;\H2.0546471100301;+
  0
LWPOLYLINE
  5
B1
102
{ACAD_REACTORS
330
A6
102
}
100
AcDbEntity
  8
0
  6
CONTINUOUS
 62
     7
100
AcDbPolyline
 90
        2
 70
     1
 10
93.0
 20
158.999964
 42
-1.0
 10
97.0
 20
158.999964
 42
-1.0
  0
MTEXT
  5
B2
100
AcDbEntity
  8
0
100
AcDbMText
 10
95.0
 20
158.999964
 30
0.0
 40
2.054647
 41
3.5
 71
     5
 72
     5
  1
\C7;\fArial|b0|i0|;\H2.0546471100301;-
  0
LWPOLYLINE
  5
B3
102
{ACAD_REACTORS
330
A6
102
}
100
AcDbEntity
  8
0
  6
CONTINUOUS
 62
     7
100
AcDbPolyline
 90
        2
 70
     1
 10
93.0
 20
173.999964
 42
-1.0
 10
97.0
 20
173.999964
 42
-1.0
  0
MTEXT
  5
B4
100
AcDbEntity
  8
0
100
AcDbMText
 10
95.0
 20
173.999964
 30
0.0
 40
2.054647
 41
3.5
 71
     5
 72
     5
  1
\C7;\fArial|b0|i0|;\H2.0546471100301;+
  0
LWPOLYLINE
  5
B5
102
{ACAD_REACTORS
330
A6
102
}
100
AcDbEntity
  8
0
  6
CONTINUOUS
 62
     7
100
AcDbPolyline
 90
        2
 70
     1
 10
93.0
 20
167.999964
 42
-1.0
 10
97.0
 20
167.999964
 42
-1.0
  0
MTEXT
  5
B6
100
AcDbEntity
  8
0
100
AcDbMText
 10
95.0
 20
167.999964
 30
0.0
 40
2.054647
 41
3.5
 71
     5
 72
     5
  1
\C7;\fArial|b0|i0|;\H2.0546471100301;+
  0
LWPOLYLINE
  5
B7
102
{ACAD_REACTORS
330
A6
102
}
100
AcDbEntity
  8
0
  6
CONTINUOUS
 62
     7
100
AcDbPolyline
 90
        2
 70
     1
 10
93.0
 20
152.999964
 42
-1.0
 10
97.0
 20
152.999964
 42
-1.0
  0
MTEXT
  5
B8
100
AcDbEntity
  8
0
100
AcDbMText
 10
95.0
 20
152.999964
 30
0.0
 40
2.054647
 41
3.5
 71
     5
 72
     5
  1
\C7;\fArial|b0|i0|;\H2.0546471100301;-
  0
LWPOLYLINE
  5
B9
102
{ACAD_REACTORS
330
A6
102
}
100
AcDbEntity
  8
0
  6
CONTINUOUS
 62
     7
100
AcDbPolyline
 90
        2
 70
     1
 10
93.0
 20
146.999964
 42
-1.0
 10
97.0
 20
146.999964
 42
-1.0
  0
MTEXT
  5
BA
100
AcDbEntity
  8
0
100
AcDbMText
 10
95.0
 20
146.999964
 30
0.0
 40
2.054647
 41
3.5
 71
     5
 72
     5
  1
\C7;\fArial|b0|i0|;\H2.0546471100301;-
  0
LWPOLYLINE
  5
BC
102
{ACAD_REACTORS
330
BB
102
}
100
AcDbEntity
  8
0
  6
CONTINUOUS
 62
     7
100
AcDbPolyline
 90
        4
 70
     1
 10
84.0
 20
74.999964
 10
100.0
 20
74.999964
 10
100.0
 20
119.785728
 10
84.0
 20
119.785728
  0
MTEXT
  5
BD
100
AcDbEntity
  8
0
100
AcDbMText
 10
92.0
 20
129.647186
 30
0.0
 40
3.082006
 41
14.886111
 71
     2
 72
     5
  1
\C7;\fArial|b0|i0|;\H3.0820059355348;36V \PPSU
  0
LWPOLYLINE
  5
BE
102
{ACAD_REACTORS
330
BB
102
}
100
AcDbEntity
  8
0
  6
CONTINUOUS
 62
     7
100
AcDbPolyline
 90
        2
 70
     1
 10
87.0
 20
114.999964
 42
-1.0
 10
91.0
 20
114.999964
 42
-1.0
  0
MTEXT
  5
BF
100
AcDbEntity
  8
0
100
AcDbMText
 10
89.0
 20
114.999964
 30
0.0
 40
2.054647
 41
3.5
 71
     5
 72
     5
  1
\C7;\fArial|b0|i0|;\H2.0546471100301;L
  0
LWPOLYLINE
  5
C0
102
{ACAD_REACTORS
330
BB
102
}
100
AcDbEntity
  8
0
  6
CONTINUOUS
 62
     7
100
AcDbPolyline
 90
        2
 70
     1
 10
87.0
 20
104.999964
 42
-1.0
 10
91.0
 20
104.999964
 42
-1.0
  0
MTEXT
  5
C1
100
AcDbEntity
  8
0
100
AcDbMText
 10
89.0
 20
104.999964
 30
0.0
 40
2.054647
 41
3.5
 71
     5
 72
     5
  1
\C7;\fArial|b0|i0|;\H2.0546471100301;N
  0
LWPOLYLINE
  5
C2
102
{ACAD_REACTORS
330
BB
102
}
100
AcDbEntity
  8
0
  6
CONTINUOUS
 62
     7
100
AcDbPolyline
 90
        2
 70
     1
 10
87.0
 20
94.999964
 42
-1.0
 10
91.0
 20
94.999964
 42
-1.0
  0
MTEXT
  5
C3
100
AcDbEntity
  8
0
100
AcDbMText
 10
89.0
 20
94.999964
 30
0.0
 40
2.054647
 41
3.5
 71
     5
 72
     5
  1
\C7;\fArial|b0|i0|;\H2.0546471100301;E
  0
LWPOLYLINE
  5
C4
102
{ACAD_REACTORS
330
BB
102
}
100
AcDbEntity
  8
0
  6
CONTINUOUS
 62
     7
100
AcDbPolyline
 90
        2
 70
     1
 10
93.0
 20
114.999964
 42
-1.0
 10
97.0
 20
114.999964
 42
-1.0
  0
MTEXT
  5
C5
100
AcDbEntity
  8
0
100
AcDbMText
 10
95.0
 20
114.999964
 30
0.0
 40
2.054647
 41
3.5
 71
     5
 72
     5
  1
\C7;\fArial|b0|i0|;\H2.0546471100301;+
  0
LWPOLYLINE
  5
C6
102
{ACAD_REACTORS
330
BB
102
}
100
AcDbEntity
  8
0
  6
CONTINUOUS
 62
     7
100
AcDbPolyline
 90
        2
 70
     1
 10
93.0
 20
93.999964
 42
-1.0
 10
97.0
 20
93.999964
 42
-1.0
  0
MTEXT
  5
C7
100
AcDbEntity
  8
0
100
AcDbMText
 10
95.0
 20
93.999964
 30
0.0
 40
2.054647
 41
3.5
 71
     5
 72
     5
  1
\C7;\fArial|b0|i0|;\H2.0546471100301;-
  0
LWPOLYLINE
  5
C8
102
{ACAD_REACTORS
330
BB
102
}
100
AcDbEntity
  8
0
  6
CONTINUOUS
 62
     7
100
AcDbPolyline
 90
        2
 70
     1
 10
93.0
 20
108.999964
 42
-1.0
 10
97.0
 20
108.999964
 42
-1.0
  0
MTEXT
  5
C9
100
AcDbEntity
  8
0
100
AcDbMText
 10
95.0
 20
108.999964
 30
0.0
 40
2.054647
 41
3.5
 71
     5
 72
     5
  1
\C7;\fArial|b0|i0|;\H2.0546471100301;+
  0
LWPOLYLINE
  5
CA
102
{ACAD_REACTORS
330
BB
102
}
100
AcDbEntity
  8
0
  6
CONTINUOUS
 62
     7
100
AcDbPolyline
 90
        2
 70
     1
 10
93.0
 20
102.999964
 42
-1.0
 10
97.0
 20
102.999964
 42
-1.0
  0
MTEXT
  5
CB
100
AcDbEntity
  8
0
100
AcDbMText
 10
95.0
 20
102.999964
 30
0.0
 40
2.054647
 41
3.5
 71
     5
 72
     5
  1
\C7;\fArial|b0|i0|;\H2.0546471100301;+
  0
LWPOLYLINE
  5
CC
102
{ACAD_REACTORS
330
BB
102
}
100
AcDbEntity
  8
0
  6
CONTINUOUS
 62
     7
100
AcDbPolyline
 90
        2
 70
     1
 10
93.0
 20
87.999964
 42
-1.0
 10
97.0
 20
87.999964
 42
-1.0
  0
MTEXT
  5
CD
100
AcDbEntity
  8
0
100
AcDbMText
 10
95.0
 20
87.999964
 30
0.0
 40
2.054647
 41
3.5
 71
     5
 72
     5
  1
\C7;\fArial|b0|i0|;\H2.0546471100301;-
  0
LWPOLYLINE
  5
CE
102
{ACAD_REACTORS
330
BB
102
}
100
AcDbEntity
  8
0
  6
CONTINUOUS
 62
     7
100
AcDbPolyline
 90
        2
 70
     1
 10
93.0
 20
81.999964
 42
-1.0
 10
97.0
 20
81.999964
 42
-1.0
  0
MTEXT
  5
CF
100
AcDbEntity
  8
0
100
AcDbMText
 10
95.0
 20
81.999964
 30
0.0
 40
2.054647
 41
3.5
 71
     5
 72
     5
  1
\C7;\fArial|b0|i0|;\H2.0546471100301;-
  0
LWPOLYLINE
  5
D1
102
{ACAD_REACTORS
330
D0
102
}
100
AcDbEntity
  8
0
  6
CONTINUOUS
 62
     7
100
AcDbPolyline
 90
        4
 70
     1
 10
84.0
 20
34.999964
 10
100.0
 20
34.999964
 10
100.0
 20
54.785728
 10
84.0
 20
54.785728
  0
MTEXT
  5
D2
100
AcDbEntity
  8
0
100
AcDbMText
 10
92.0
 20
64.647186
 30
0.0
 40
3.082006
 41
14.886111
 71
     2
 72
     5
  1
\C7;\fArial|b0|i0|;\H3.0820059355348;12V \PPSU
  0
LWPOLYLINE
  5
D3
102
{ACAD_REACTORS
330
D0
102
}
100
AcDbEntity
  8
0
  6
CONTINUOUS
 62
     7
100
AcDbPolyline
 90
        2
 70
     1
 10
87.0
 20
49.999964
 42
-1.0
 10
91.0
 20
49.999964
 42
-1.0
  0
MTEXT
  5
D4
100
AcDbEntity
  8
0
100
AcDbMText
 10
89.0
 20
49.999964
 30
0.0
 40
2.054647
 41
3.5
 71
     5
 72
     5
  1
\C7;\fArial|b0|i0|;\H2.0546471100301;L
  0
LWPOLYLINE
  5
D5
102
{ACAD_REACTORS
330
D0
102
}
100
AcDbEntity
  8
0
  6
CONTINUOUS
 62
     7
100
AcDbPolyline
 90
        2
 70
     1
 10
87.0
 20
39.999964
 42
-1.0
 10
91.0
 20
39.999964
 42
-1.0
  0
MTEXT
  5
D6
100
AcDbEntity
  8
0
100
AcDbMText
 10
89.0
 20
39.999964
 30
0.0
 40
2.054647
 41
3.5
 71
     5
 72
     5
  1
\C7;\fArial|b0|i0|;\H2.0546471100301;N
  0
LWPOLYLINE
  5
D7
102
{ACAD_REACTORS
330
D0
102
}
100
AcDbEntity
  8
0
  6
CONTINUOUS
 62
     7
100
AcDbPolyline
 90
        2
 70
     1
 10
93.0
 20
49.999964
 42
-1.0
 10
97.0
 20
49.999964
 42
-1.0
  0
MTEXT
  5
D8
100
AcDbEntity
  8
0
100
AcDbMText
 10
95.0
 20
49.999964
 30
0.0
 40
2.054647
 41
3.5
 71
     5
 72
     5
  1
\C7;\fArial|b0|i0|;\H2.0546471100301;+
  0
LWPOLYLINE
  5
D9
102
{ACAD_REACTORS
330
D0
102
}
100
AcDbEntity
  8
0
  6
CONTINUOUS
 62
     7
100
AcDbPolyline
 90
        2
 70
     1
 10
93.0
 20
39.999964
 42
-1.0
 10
97.0
 20
39.999964
 42
-1.0
  0
MTEXT
  5
DA
100
AcDbEntity
  8
0
100
AcDbMText
 10
95.0
 20
39.999964
 30
0.0
 40
2.054647
 41
3.5
 71
     5
 72
     5
  1
\C7;\fArial|b0|i0|;\H2.0546471100301;-
  0
LWPOLYLINE
  5
DB
100
AcDbEntity
  8
CONNECTOR
  6
CONTINUOUS
100
AcDbPolyline
 90
        3
 70
     0
 10
76.431034
 20
249.999964
 10
76.431034
 20
179.999964
 10
87.0
 20
179.999964
  0
LWPOLYLINE
  5
DC
100
AcDbEntity
  8
CONNECTOR
  6
CONTINUOUS
100
AcDbPolyline
 90
        3
 70
     0
 10
75.086207
 20
249.999964
 10
75.086207
 20
114.999964
 10
87.0
 20
114.999964
  0
LWPOLYLINE
  5
DD
100
AcDbEntity
  8
CONNECTOR
  6
CONTINUOUS
100
AcDbPolyline
 90
        5
 70
     0
 10
73.068966
 20
239.999964
 10
73.068966
 20
169.999964
 10
74.252874
 20
169.999964
 42
-1.0
 10
75.91954
 20
169.999964
 10
87.0
 20
169.999964
  0
LWPOLYLINE
  5
DE
100
AcDbEntity
  8
CONNECTOR
  6
CONTINUOUS
100
AcDbPolyline
 90
        5
 70
     0
 10
71.724138
 20
239.999964
 10
71.724138
 20
104.999964
 10
82.416667
 20
104.999964
 42
-1.0
 10
84.083333
 20
104.999964
 10
87.0
 20
104.999964
  0
LWPOLYLINE
  5
DF
100
AcDbEntity
  8
CONNECTOR
  6
CONTINUOUS
100
AcDbPolyline
 90
        7
 70
     0
 10
69.706897
 20
229.999964
 10
69.706897
 20
159.999964
 10
70.890805
 20
159.999964
 42
-1.0
 10
72.557471
 20
159.999964
 10
74.252874
 20
159.999964
 42
-1.0
 10
75.91954
 20
159.999964
 10
87.0
 20
159.999964
  0
LWPOLYLINE
  5
E0
100
AcDbEntity
  8
CONNECTOR
  6
CONTINUOUS
100
AcDbPolyline
 90
        7
 70
     0
 10
68.362069
 20
229.999964
 10
68.362069
 20
94.999964
 10
79.916667
 20
94.999964
 42
-1.0
 10
81.583333
 20
94.999964
 10
82.416667
 20
94.999964
 42
-1.0
 10
84.083333
 20
94.999964
 10
87.0
 20
94.999964
  0
LWPOLYLINE
  5
E1
100
AcDbEntity
  8
CONNECTOR
  6
CONTINUOUS
100
AcDbPolyline
 90
        4
 70
     0
 10
87.0
 20
114.999964
 10
83.25
 20
114.999964
 10
83.25
 20
49.999964
 10
87.0
 20
49.999964
  0
LWPOLYLINE
  5
E2
100
AcDbEntity
  8
CONNECTOR
  6
CONTINUOUS
100
AcDbPolyline
 90
        6
 70
     0
 10
87.0
 20
104.999964
 10
84.083333
 20
104.999964
 42
1.0
 10
82.416667
 20
104.999964
 10
80.75
 20
104.999964
 10
80.75
 20
39.999964
 10
87.0
 20
39.999964
  0
LINE
  5
E3
100
AcDbEntity
  8
0
  6
CONTINUOUS
 62
    10
100
AcDbLine
 10
110.0
 20
46.499964
 30
0.0
 11
97.0
 21
49.999964
 31
0.0
  0
LINE
  5
E4
100
AcDbEntity
  8
0
  6
CONTINUOUS
 62
     7
100
AcDbLine
 10
97.0
 20
39.999964
 30
0.0
 11
110.0
 21
43.499964
 31
0.0
  0
ELLIPSE
  5
E7
102
{ACAD_REACTORS
330
E5
102
}
100
AcDbEntity
  8
HVAC
  6
CONTINUOUS
 62
     7
100
AcDbEllipse
 10
120.61628
 20
42.410977
 30
0.0
 11
-3.8643406220087684
 21
-5.5188503566943465
 31
0.0
210
0.0
220
0.0
230
1.0
 40
0.555556
 41
-1.652290409347243
 42
0.31086416128509
  0
ELLIPSE
  5
E8
102
{ACAD_REACTORS
330
E5
102
}
100
AcDbEntity
  8
HVAC
  6
CONTINUOUS
 62
     7
100
AcDbEllipse
 10
115.13372
 20
42.410977
 30
0.0
 11
3.8643406220086955
 21
-5.5188503566943261
 31
0.0
210
0.0
220
0.0
230
1.0
 40
0.555556
 41
-0.3108641612850894
 42
1.6522904093472572
  0
ELLIPSE
  5
E9
102
{ACAD_REACTORS
330
E5
102
}
100
AcDbEntity
  8
HVAC
  6
CONTINUOUS
 62
     7
100
AcDbEllipse
 10
120.61628
 20
47.588951
 30
0.0
 11
3.8643406220086951
 21
-5.5188503566943252
 31
0.0
210
0.0
220
0.0
230
1.0
 40
0.555556
 41
2.8307284923047038
 42
4.7938830629370646
  0
ELLIPSE
  5
EA
102
{ACAD_REACTORS
330
E5
102
}
100
AcDbEntity
  8
HVAC
  6
CONTINUOUS
 62
     7
100
AcDbEllipse
 10
115.13372
 20
47.588951
 30
0.0
 11
-3.8643406220087697
 21
-5.5188503566943492
 31
0.0
210
0.0
220
0.0
230
1.0
 40
0.555556
 41
1.4893022442425508
 42
3.4524568148748971
  0
LINE
  5
EB
102
{ACAD_REACTORS
330
E5
102
}
100
AcDbEntity
  8
HVAC
  6
CONTINUOUS
 62
     7
100
AcDbLine
 10
117.875
 20
44.999964
 30
0.0
 11
115.0
 21
44.999964
 31
0.0
  0
LWPOLYLINE
  5
EC
102
{ACAD_REACTORS
330
E5
102
}
100
AcDbEntity
  8
HVAC
  6
CONTINUOUS
 62
     7
100
AcDbPolyline
 90
        4
 70
     1
 10
110.0
 20
42.499964
 10
110.0
 20
47.499964
 10
115.0
 20
47.499964
 10
115.0
 20
42.499964
  0
MTEXT
  5
ED
100
AcDbEntity
  8
HVAC
100
AcDbMText
 10
115.0
 20
58.647186
 30
0.0
 40
3.082006
 41
10.0
 71
     2
 72
     5
  1
\C7;\fArial|b0|i0|;\H3.0820059355348;Fan
  0
LWPOLYLINE
  5
EF
102
{ACAD_REACTORS
330
EE
102
}
100
AcDbEntity
  8
0
  6
CONTINUOUS
 62
     7
100
AcDbPolyline
 90
        4
 70
     1
 10
127.5
 20
165.499964
 10
143.5
 20
165.499964
 10
143.5
 20
193.285728
 10
127.5
 20
193.285728
  0
MTEXT
  5
F0
100
AcDbEntity
  8
0
100
AcDbMText
 10
135.5
 20
203.147186
 30
0.0
 40
3.082006
 41
17.943056
 71
     2
 72
     5
  1
\C7;\fArial|b0|i0|;\H3.0820059355348;X\PTB6600
  0
LWPOLYLINE
  5
F1
102
{ACAD_REACTORS
330
EE
102
}
100
AcDbEntity
  8
0
  6
CONTINUOUS
 62
     7
100
AcDbPolyline
 90
        2
 70
     1
 10
130.5
 20
188.499964
 42
-1.0
 10
134.5
 20
188.499964
 42
-1.0
  0
MTEXT
  5
F2
100
AcDbEntity
  8
0
100
AcDbMText
 10
132.5
 20
188.499964
 30
0.0
 40
2.054647
 41
3.5
 71
     5
 72
     5
  1
\C7;\fArial|b0|i0|;\H2.0546471100301;+
  0
LWPOLYLINE
  5
F3
102
{ACAD_REACTORS
330
EE
102
}
100
AcDbEntity
  8
0
  6
CONTINUOUS
 62
     7
100
AcDbPolyline
 90
        2
 70
     1
 10
130.5
 20
178.499964
 42
-1.0
 10
134.5
 20
178.499964
 42
-1.0
  0
MTEXT
  5
F4
100
AcDbEntity
  8
0
100
AcDbMText
 10
132.5
 20
178.499964
 30
0.0
 40
2.054647
 41
3.5
 71
     5
 72
     5
  1
\C7;\fArial|b0|i0|;\H2.0546471100301;-
  0
LWPOLYLINE
  5
F5
102
{ACAD_REACTORS
330
EE
102
}
100
AcDbEntity
  8
0
  6
CONTINUOUS
 62
     7
100
AcDbPolyline
 90
        2
 70
     1
 10
136.5
 20
188.499964
 42
-1.0
 10
140.5
 20
188.499964
 42
-1.0
  0
LWPOLYLINE
  5
F6
102
{ACAD_REACTORS
330
EE
102
}
100
AcDbEntity
  8
0
  6
CONTINUOUS
 62
     7
100
AcDbPolyline
 90
        2
 70
     1
 10
136.5
 20
170.499964
 42
-1.0
 10
140.5
 20
170.499964
 42
-1.0
  0
LWPOLYLINE
  5
F7
102
{ACAD_REACTORS
330
EE
102
}
100
AcDbEntity
  8
0
  6
CONTINUOUS
 62
     7
100
AcDbPolyline
 90
        2
 70
     1
 10
136.5
 20
182.499964
 42
-1.0
 10
140.5
 20
182.499964
 42
-1.0
  0
LWPOLYLINE
  5
F8
102
{ACAD_REACTORS
330
EE
102
}
100
AcDbEntity
  8
0
  6
CONTINUOUS
 62
     7
100
AcDbPolyline
 90
        2
 70
     1
 10
136.5
 20
176.499964
 42
-1.0
 10
140.5
 20
176.499964
 42
-1.0
  0
MTEXT
  5
F9
100
AcDbEntity
  8
0
100
AcDbMText
 10
138.5
 20
190.147186
 30
0.0
 40
2.054647
 41
5.0
 71
     2
 72
     5
  1
\C7;\fArial|b0|i0|;\H2.0546471100301;A
  0
MTEXT
  5
FA
100
AcDbEntity
  8
0
100
AcDbMText
 10
138.5
 20
184.147186
 30
0.0
 40
2.054647
 41
5.0
 71
     2
 72
     5
  1
\C7;\fArial|b0|i0|;\H2.0546471100301;A/
  0
MTEXT
  5
FB
100
AcDbEntity
  8
0
100
AcDbMText
 10
138.5
 20
178.147186
 30
0.0
 40
2.054647
 41
5.0
 71
     2
 72
     5
  1
\C7;\fArial|b0|i0|;\H2.0546471100301;B
  0
MTEXT
  5
FC
100
AcDbEntity
  8
0
100
AcDbMText
 10
138.5
 20
172.147186
 30
0.0
 40
2.054647
 41
5.0
 71
     2
 72
     5
  1
\C7;\fArial|b0|i0|;\H2.0546471100301;B/
  0
LWPOLYLINE
  5
FE
102
{ACAD_REACTORS
330
FD
102
}
100
AcDbEntity
  8
0
  6
CONTINUOUS
 62
     7
100
AcDbPolyline
 90
        4
 70
     1
 10
127.5
 20
125.999964
 10
143.5
 20
125.999964
 10
143.5
 20
153.785728
 10
127.5
 20
153.785728
  0
MTEXT
  5
FF
100
AcDbEntity
  8
0
100
AcDbMText
 10
135.5
 20
163.647186
 30
0.0
 40
3.082006
 41
17.943056
 71
     2
 72
     5
  1
\C7;\fArial|b0|i0|;\H3.0820059355348;Y\PTB6600
  0
LWPOLYLINE
  5
100
102
{ACAD_REACTORS
330
FD
102
}
100
AcDbEntity
  8
0
  6
CONTINUOUS
 62
     7
100
AcDbPolyline
 90
        2
 70
     1
 10
130.5
 20
148.999964
 42
-1.0
 10
134.5
 20
148.999964
 42
-1.0
  0
MTEXT
  5
101
100
AcDbEntity
  8
0
100
AcDbMText
 10
132.5
 20
148.999964
 30
0.0
 40
2.054647
 41
3.5
 71
     5
 72
     5
  1
\C7;\fArial|b0|i0|;\H2.0546471100301;+
  0
LWPOLYLINE
  5
102
102
{ACAD_REACTORS
330
FD
102
}
100
AcDbEntity
  8
0
  6
CONTINUOUS
 62
     7
100
AcDbPolyline
 90
        2
 70
     1
 10
130.5
 20
138.999964
 42
-1.0
 10
134.5
 20
138.999964
 42
-1.0
  0
MTEXT
  5
103
100
AcDbEntity
  8
0
100
AcDbMText
 10
132.5
 20
138.999964
 30
0.0
 40
2.054647
 41
3.5
 71
     5
 72
     5
  1
\C7;\fArial|b0|i0|;\H2.0546471100301;-
  0
LWPOLYLINE
  5
104
102
{ACAD_REACTORS
330
FD
102
}
100
AcDbEntity
  8
0
  6
CONTINUOUS
 62
     7
100
AcDbPolyline
 90
        2
 70
     1
 10
136.5
 20
148.999964
 42
-1.0
 10
140.5
 20
148.999964
 42
-1.0
  0
LWPOLYLINE
  5
105
102
{ACAD_REACTORS
330
FD
102
}
100
AcDbEntity
  8
0
  6
CONTINUOUS
 62
     7
100
AcDbPolyline
 90
        2
 70
     1
 10
136.5
 20
130.999964
 42
-1.0
 10
140.5
 20
130.999964
 42
-1.0
  0
LWPOLYLINE
  5
106
102
{ACAD_REACTORS
330
FD
102
}
100
AcDbEntity
  8
0
  6
CONTINUOUS
 62
     7
100
AcDbPolyline
 90
        2
 70
     1
 10
136.5
 20
142.999964
 42
-1.0
 10
140.5
 20
142.999964
 42
-1.0
  0
LWPOLYLINE
  5
107
102
{ACAD_REACTORS
330
FD
102
}
100
AcDbEntity
  8
0
  6
CONTINUOUS
 62
     7
100
AcDbPolyline
 90
        2
 70
     1
 10
136.5
 20
136.999964
 42
-1.0
 10
140.5
 20
136.999964
 42
-1.0
  0
MTEXT
  5
108
100
AcDbEntity
  8
0
100
AcDbMText
 10
138.5
 20
150.647186
 30
0.0
 40
2.054647
 41
5.0
 71
     2
 72
     5
  1
\C7;\fArial|b0|i0|;\H2.0546471100301;A
  0
MTEXT
  5
109
100
AcDbEntity
  8
0
100
AcDbMText
 10
138.5
 20
144.647186
 30
0.0
 40
2.054647
 41
5.0
 71
     2
 72
     5
  1
\C7;\fArial|b0|i0|;\H2.0546471100301;A/
  0
MTEXT
  5
10A
100
AcDbEntity
  8
0
100
AcDbMText
 10
138.5
 20
138.647186
 30
0.0
 40
2.054647
 41
5.0
 71
     2
 72
     5
  1
\C7;\fArial|b0|i0|;\H2.0546471100301;B
  0
MTEXT
  5
10B
100
AcDbEntity
  8
0
100
AcDbMText
 10
138.5
 20
132.647186
 30
0.0
 40
2.054647
 41
5.0
 71
     2
 72
     5
  1
\C7;\fArial|b0|i0|;\H2.0546471100301;B/
  0
LWPOLYLINE
  5
10D
102
{ACAD_REACTORS
330
10C
102
}
100
AcDbEntity
  8
0
  6
CONTINUOUS
 62
     7
100
AcDbPolyline
 90
        4
 70
     1
 10
127.5
 20
84.999964
 10
143.5
 20
84.999964
 10
143.5
 20
112.785728
 10
127.5
 20
112.785728
  0
MTEXT
  5
10E
100
AcDbEntity
  8
0
100
AcDbMText
 10
135.5
 20
122.647186
 30
0.0
 40
3.082006
 41
17.943056
 71
     2
 72
     5
  1
\C7;\fArial|b0|i0|;\H3.0820059355348;Z\PTB6600
  0
LWPOLYLINE
  5
10F
102
{ACAD_REACTORS
330
10C
102
}
100
AcDbEntity
  8
0
  6
CONTINUOUS
 62
     7
100
AcDbPolyline
 90
        2
 70
     1
 10
130.5
 20
107.999964
 42
-1.0
 10
134.5
 20
107.999964
 42
-1.0
  0
MTEXT
  5
110
100
AcDbEntity
  8
0
100
AcDbMText
 10
132.5
 20
107.999964
 30
0.0
 40
2.054647
 41
3.5
 71
     5
 72
     5
  1
\C7;\fArial|b0|i0|;\H2.0546471100301;+
  0
LWPOLYLINE
  5
111
102
{ACAD_REACTORS
330
10C
102
}
100
AcDbEntity
  8
0
  6
CONTINUOUS
 62
     7
100
AcDbPolyline
 90
        2
 70
     1
 10
130.5
 20
97.999964
 42
-1.0
 10
134.5
 20
97.999964
 42
-1.0
  0
MTEXT
  5
112
100
AcDbEntity
  8
0
100
AcDbMText
 10
132.5
 20
97.999964
 30
0.0
 40
2.054647
 41
3.5
 71
     5
 72
     5
  1
\C7;\fArial|b0|i0|;\H2.0546471100301;-
  0
LWPOLYLINE
  5
113
102
{ACAD_REACTORS
330
10C
102
}
100
AcDbEntity
  8
0
  6
CONTINUOUS
 62
     7
100
AcDbPolyline
 90
        2
 70
     1
 10
136.5
 20
107.999964
 42
-1.0
 10
140.5
 20
107.999964
 42
-1.0
  0
LWPOLYLINE
  5
114
102
{ACAD_REACTORS
330
10C
102
}
100
AcDbEntity
  8
0
  6
CONTINUOUS
 62
     7
100
AcDbPolyline
 90
        2
 70
     1
 10
136.5
 20
89.999964
 42
-1.0
 10
140.5
 20
89.999964
 42
-1.0
  0
LWPOLYLINE
  5
115
102
{ACAD_REACTORS
330
10C
102
}
100
AcDbEntity
  8
0
  6
CONTINUOUS
 62
     7
100
AcDbPolyline
 90
        2
 70
     1
 10
136.5
 20
101.999964
 42
-1.0
 10
140.5
 20
101.999964
 42
-1.0
  0
LWPOLYLINE
  5
116
102
{ACAD_REACTORS
330
10C
102
}
100
AcDbEntity
  8
0
  6
CONTINUOUS
 62
     7
100
AcDbPolyline
 90
        2
 70
     1
 10
136.5
 20
95.999964
 42
-1.0
 10
140.5
 20
95.999964
 42
-1.0
  0
MTEXT
  5
117
100
AcDbEntity
  8
0
100
AcDbMText
 10
138.5
 20
109.647186
 30
0.0
 40
2.054647
 41
5.0
 71
     2
 72
     5
  1
\C7;\fArial|b0|i0|;\H2.0546471100301;A
  0
MTEXT
  5
118
100
AcDbEntity
  8
0
100
AcDbMText
 10
138.5
 20
103.647186
 30
0.0
 40
2.054647
 41
5.0
 71
     2
 72
     5
  1
\C7;\fArial|b0|i0|;\H2.0546471100301;A/
  0
MTEXT
  5
119
100
AcDbEntity
  8
0
100
AcDbMText
 10
138.5
 20
97.647186
 30
0.0
 40
2.054647
 41
5.0
 71
     2
 72
     5
  1
\C7;\fArial|b0|i0|;\H2.0546471100301;B
  0
MTEXT
  5
11A
100
AcDbEntity
  8
0
100
AcDbMText
 10
138.5
 20
91.647186
 30
0.0
 40
2.054647
 41
5.0
 71
     2
 72
     5
  1
\C7;\fArial|b0|i0|;\H2.0546471100301;B/
  0
LINE
  5
11B
100
AcDbEntity
  8
0
  6
CONTINUOUS
 62
    10
100
AcDbLine
 10
97.0
 20
179.999964
 30
0.0
 11
130.5
 21
188.499964
 31
0.0
  0
LINE
  5
11C
100
AcDbEntity
  8
0
  6
CONTINUOUS
 62
    10
100
AcDbLine
 10
97.0
 20
173.999964
 30
0.0
 11
130.5
 21
148.999964
 31
0.0
  0
LINE
  5
11D
100
AcDbEntity
  8
0
  6
CONTINUOUS
 62
    10
100
AcDbLine
 10
97.0
 20
114.999964
 30
0.0
 11
130.5
 21
107.999964
 31
0.0
  0
LINE
  5
11E
100
AcDbEntity
  8
0
  6
CONTINUOUS
 62
     7
100
AcDbLine
 10
97.0
 20
158.999964
 30
0.0
 11
130.5
 21
178.499964
 31
0.0
  0
LINE
  5
11F
100
AcDbEntity
  8
0
  6
CONTINUOUS
 62
     7
100
AcDbLine
 10
97.0
 20
152.999964
 30
0.0
 11
130.5
 21
138.999964
 31
0.0
  0
LINE
  5
120
100
AcDbEntity
  8
0
  6
CONTINUOUS
 62
     7
100
AcDbLine
 10
97.0
 20
108.999964
 30
0.0
 11
130.5
 21
97.999964
 31
0.0
  0
ELLIPSE
  5
122
102
{ACAD_REACTORS
330
121
102
}
100
AcDbEntity
  8
ELECTRICAL
  6
CONTINUOUS
100
AcDbEllipse
 10
168.134589
 20
187.749964
 30
0.0
 11
-0.865411211510746
 21
0.0
 31
0.0
210
0.0
220
0.0
230
1.0
 40
0.867333
 41
1.5308176396716056
 42
4.7523676675079951
  0
ELLIPSE
  5
123
102
{ACAD_REACTORS
330
121
102
}
100
AcDbEntity
  8
ELECTRICAL
  6
CONTINUOUS
100
AcDbEllipse
 10
168.134589
 20
186.249964
 30
0.0
 11
-0.8654112115107452
 21
0.0
 31
0.0
210
0.0
220
0.0
230
1.0
 40
0.867333
 41
1.5308176396716049
 42
4.7523676675079951
  0
ELLIPSE
  5
124
102
{ACAD_REACTORS
330
121
102
}
100
AcDbEntity
  8
ELECTRICAL
  6
CONTINUOUS
100
AcDbEllipse
 10
168.134589
 20
184.749964
 30
0.0
 11
-0.8654112115107462
 21
0.0
 31
0.0
210
0.0
220
0.0
230
1.0
 40
0.867333
 41
1.5308176396716062
 42
4.7523676675079942
  0
ELLIPSE
  5
125
102
{ACAD_REACTORS
330
121
102
}
100
AcDbEntity
  8
ELECTRICAL
  6
CONTINUOUS
100
AcDbEllipse
 10
168.134589
 20
183.249964
 30
0.0
 11
-0.8654112115107472
 21
0.0
 31
0.0
210
0.0
220
0.0
230
1.0
 40
0.867333
 41
1.5308176396716056
 42
4.7523676675079951
  0
LINE
  5
126
102
{ACAD_REACTORS
330
121
102
}
100
AcDbEntity
  8
ELECTRICAL
  6
CONTINUOUS
100
AcDbLine
 10
168.1
 20
188.499964
 30
0.0
 11
166.3
 21
188.499964
 31
0.0
  0
LINE
  5
127
102
{ACAD_REACTORS
330
121
102
}
100
AcDbEntity
  8
ELECTRICAL
  6
CONTINUOUS
100
AcDbLine
 10
168.1
 20
182.499964
 30
0.0
 11
166.3
 21
182.499964
 31
0.0
  0
ELLIPSE
  5
128
102
{ACAD_REACTORS
330
121
102
}
100
AcDbEntity
  8
ELECTRICAL
  6
CONTINUOUS
100
AcDbEllipse
 10
168.134589
 20
175.749964
 30
0.0
 11
-0.865411211510746
 21
0.0
 31
0.0
210
0.0
220
0.0
230
1.0
 40
0.867333
 41
1.5308176396716056
 42
4.7523676675079951
  0
ELLIPSE
  5
129
102
{ACAD_REACTORS
330
121
102
}
100
AcDbEntity
  8
ELECTRICAL
  6
CONTINUOUS
100
AcDbEllipse
 10
168.134589
 20
174.249964
 30
0.0
 11
-0.8654112115107452
 21
0.0
 31
0.0
210
0.0
220
0.0
230
1.0
 40
0.867333
 41
1.5308176396716049
 42
4.7523676675079951
  0
ELLIPSE
  5
12A
102
{ACAD_REACTORS
330
121
102
}
100
AcDbEntity
  8
ELECTRICAL
  6
CONTINUOUS
100
AcDbEllipse
 10
168.134589
 20
172.749964
 30
0.0
 11
-0.8654112115107462
 21
0.0
 31
0.0
210
0.0
220
0.0
230
1.0
 40
0.867333
 41
1.5308176396716062
 42
4.7523676675079942
  0
ELLIPSE
  5
12B
102
{ACAD_REACTORS
330
121
102
}
100
AcDbEntity
  8
ELECTRICAL
  6
CONTINUOUS
100
AcDbEllipse
 10
168.134589
 20
171.249964
 30
0.0
 11
-0.8654112115107472
 21
0.0
 31
0.0
210
0.0
220
0.0
230
1.0
 40
0.867333
 41
1.5308176396716056
 42
4.7523676675079951
  0
LINE
  5
12C
102
{ACAD_REACTORS
330
121
102
}
100
AcDbEntity
  8
ELECTRICAL
  6
CONTINUOUS
100
AcDbLine
 10
168.1
 20
176.499964
 30
0.0
 11
166.3
 21
176.499964
 31
0.0
  0
LINE
  5
12D
102
{ACAD_REACTORS
330
121
102
}
100
AcDbEntity
  8
ELECTRICAL
  6
CONTINUOUS
100
AcDbLine
 10
168.1
 20
170.499964
 30
0.0
 11
166.3
 21
170.499964
 31
0.0
  0
LWPOLYLINE
  5
12E
102
{ACAD_REACTORS
330
121
102
}
100
AcDbEntity
  8
0
  6
CONTINUOUS
 62
     7
100
AcDbPolyline
 90
        2
 70
     1
 10
156.75
 20
179.749964
 42
-1.0
 10
178.25
 20
179.749964
 42
-1.0
  0
MTEXT
  5
12F
100
AcDbEntity
  8
0
100
AcDbMText
 10
167.5
 20
182.147186
 30
0.0
 40
3.082006
 41
22.5
 71
     2
 72
     5
  1
\C7;\fArial|b0|i0|;\H3.0820059355348;X Stepper
  0
ELLIPSE
  5
131
102
{ACAD_REACTORS
330
130
102
}
100
AcDbEntity
  8
ELECTRICAL
  6
CONTINUOUS
100
AcDbEllipse
 10
168.134589
 20
148.249964
 30
0.0
 11
-0.865411211510746
 21
0.0
 31
0.0
210
0.0
220
0.0
230
1.0
 40
0.867333
 41
1.5308176396716056
 42
4.7523676675079951
  0
ELLIPSE
  5
132
102
{ACAD_REACTORS
330
130
102
}
100
AcDbEntity
  8
ELECTRICAL
  6
CONTINUOUS
100
AcDbEllipse
 10
168.134589
 20
146.749964
 30
0.0
 11
-0.8654112115107452
 21
0.0
 31
0.0
210
0.0
220
0.0
230
1.0
 40
0.867333
 41
1.5308176396716049
 42
4.7523676675079951
  0
ELLIPSE
  5
133
102
{ACAD_REACTORS
330
130
102
}
100
AcDbEntity
  8
ELECTRICAL
  6
CONTINUOUS
100
AcDbEllipse
 10
168.134589
 20
145.249964
 30
0.0
 11
-0.8654112115107462
 21
0.0
 31
0.0
210
0.0
220
0.0
230
1.0
 40
0.867333
 41
1.5308176396716062
 42
4.7523676675079942
  0
ELLIPSE
  5
134
102
{ACAD_REACTORS
330
130
102
}
100
AcDbEntity
  8
ELECTRICAL
  6
CONTINUOUS
100
AcDbEllipse
 10
168.134589
 20
143.749964
 30
0.0
 11
-0.8654112115107472
 21
0.0
 31
0.0
210
0.0
220
0.0
230
1.0
 40
0.867333
 41
1.5308176396716056
 42
4.7523676675079951
  0
LINE
  5
135
102
{ACAD_REACTORS
330
130
102
}
100
AcDbEntity
  8
ELECTRICAL
  6
CONTINUOUS
100
AcDbLine
 10
168.1
 20
148.999964
 30
0.0
 11
166.3
 21
148.999964
 31
0.0
  0
LINE
  5
136
102
{ACAD_REACTORS
330
130
102
}
100
AcDbEntity
  8
ELECTRICAL
  6
CONTINUOUS
100
AcDbLine
 10
168.1
 20
142.999964
 30
0.0
 11
166.3
 21
142.999964
 31
0.0
  0
ELLIPSE
  5
137
102
{ACAD_REACTORS
330
130
102
}
100
AcDbEntity
  8
ELECTRICAL
  6
CONTINUOUS
100
AcDbEllipse
 10
168.134589
 20
136.249964
 30
0.0
 11
-0.865411211510746
 21
0.0
 31
0.0
210
0.0
220
0.0
230
1.0
 40
0.867333
 41
1.5308176396716056
 42
4.7523676675079951
  0
ELLIPSE
  5
138
102
{ACAD_REACTORS
330
130
102
}
100
AcDbEntity
  8
ELECTRICAL
  6
CONTINUOUS
100
AcDbEllipse
 10
168.134589
 20
134.749964
 30
0.0
 11
-0.8654112115107452
 21
0.0
 31
0.0
210
0.0
220
0.0
230
1.0
 40
0.867333
 41
1.5308176396716049
 42
4.7523676675079951
  0
ELLIPSE
  5
139
102
{ACAD_REACTORS
330
130
102
}
100
AcDbEntity
  8
ELECTRICAL
  6
CONTINUOUS
100
AcDbEllipse
 10
168.134589
 20
133.249964
 30
0.0
 11
-0.8654112115107462
 21
0.0
 31
0.0
210
0.0
220
0.0
230
1.0
 40
0.867333
 41
1.5308176396716062
 42
4.7523676675079942
  0
ELLIPSE
  5
13A
102
{ACAD_REACTORS
330
130
102
}
100
AcDbEntity
  8
ELECTRICAL
  6
CONTINUOUS
100
AcDbEllipse
 10
168.134589
 20
131.749964
 30
0.0
 11
-0.8654112115107472
 21
0.0
 31
0.0
210
0.0
220
0.0
230
1.0
 40
0.867333
 41
1.5308176396716056
 42
4.7523676675079951
  0
LINE
  5
13B
102
{ACAD_REACTORS
330
130
102
}
100
AcDbEntity
  8
ELECTRICAL
  6
CONTINUOUS
100
AcDbLine
 10
168.1
 20
136.999964
 30
0.0
 11
166.3
 21
136.999964
 31
0.0
  0
LINE
  5
13C
102
{ACAD_REACTORS
330
130
102
}
100
AcDbEntity
  8
ELECTRICAL
  6
CONTINUOUS
100
AcDbLine
 10
168.1
 20
130.999964
 30
0.0
 11
166.3
 21
130.999964
 31
0.0
  0
LWPOLYLINE
  5
13D
102
{ACAD_REACTORS
330
130
102
}
100
AcDbEntity
  8
0
  6
CONTINUOUS
 62
     7
100
AcDbPolyline
 90
        2
 70
     1
 10
156.75
 20
140.249964
 42
-1.0
 10
178.25
 20
140.249964
 42
-1.0
  0
MTEXT
  5
13E
100
AcDbEntity
  8
0
100
AcDbMText
 10
167.5
 20
142.647186
 30
0.0
 40
3.082006
 41
22.5
 71
     2
 72
     5
  1
\C7;\fArial|b0|i0|;\H3.0820059355348;Y Stepper
  0
ELLIPSE
  5
140
102
{ACAD_REACTORS
330
13F
102
}
100
AcDbEntity
  8
ELECTRICAL
  6
CONTINUOUS
100
AcDbEllipse
 10
168.134589
 20
107.249964
 30
0.0
 11
-0.865411211510746
 21
0.0
 31
0.0
210
0.0
220
0.0
230
1.0
 40
0.867333
 41
1.5308176396716056
 42
4.7523676675079951
  0
ELLIPSE
  5
141
102
{ACAD_REACTORS
330
13F
102
}
100
AcDbEntity
  8
ELECTRICAL
  6
CONTINUOUS
100
AcDbEllipse
 10
168.134589
 20
105.749964
 30
0.0
 11
-0.8654112115107452
 21
0.0
 31
0.0
210
0.0
220
0.0
230
1.0
 40
0.867333
 41
1.5308176396716049
 42
4.7523676675079951
  0
ELLIPSE
  5
142
102
{ACAD_REACTORS
330
13F
102
}
100
AcDbEntity
  8
ELECTRICAL
  6
CONTINUOUS
100
AcDbEllipse
 10
168.134589
 20
104.249964
 30
0.0
 11
-0.8654112115107462
 21
0.0
 31
0.0
210
0.0
220
0.0
230
1.0
 40
0.867333
 41
1.5308176396716062
 42
4.7523676675079942
  0
ELLIPSE
  5
143
102
{ACAD_REACTORS
330
13F
102
}
100
AcDbEntity
  8
ELECTRICAL
  6
CONTINUOUS
100
AcDbEllipse
 10
168.134589
 20
102.749964
 30
0.0
 11
-0.8654112115107472
 21
0.0
 31
0.0
210
0.0
220
0.0
230
1.0
 40
0.867333
 41
1.5308176396716056
 42
4.7523676675079951
  0
LINE
  5
144
102
{ACAD_REACTORS
330
13F
102
}
100
AcDbEntity
  8
ELECTRICAL
  6
CONTINUOUS
100
AcDbLine
 10
168.1
 20
107.999964
 30
0.0
 11
166.3
 21
107.999964
 31
0.0
  0
LINE
  5
145
102
{ACAD_REACTORS
330
13F
102
}
100
AcDbEntity
  8
ELECTRICAL
  6
CONTINUOUS
100
AcDbLine
 10
168.1
 20
101.999964
 30
0.0
 11
166.3
 21
101.999964
 31
0.0
  0
ELLIPSE
  5
146
102
{ACAD_REACTORS
330
13F
102
}
100
AcDbEntity
  8
ELECTRICAL
  6
CONTINUOUS
100
AcDbEllipse
 10
168.134589
 20
95.249964
 30
0.0
 11
-0.865411211510746
 21
0.0
 31
0.0
210
0.0
220
0.0
230
1.0
 40
0.867333
 41
1.5308176396716056
 42
4.7523676675079951
  0
ELLIPSE
  5
147
102
{ACAD_REACTORS
330
13F
102
}
100
AcDbEntity
  8
ELECTRICAL
  6
CONTINUOUS
100
AcDbEllipse
 10
168.134589
 20
93.749964
 30
0.0
 11
-0.8654112115107452
 21
0.0
 31
0.0
210
0.0
220
0.0
230
1.0
 40
0.867333
 41
1.5308176396716049
 42
4.7523676675079951
  0
ELLIPSE
  5
148
102
{ACAD_REACTORS
330
13F
102
}
100
AcDbEntity
  8
ELECTRICAL
  6
CONTINUOUS
100
AcDbEllipse
 10
168.134589
 20
92.249964
 30
0.0
 11
-0.8654112115107462
 21
0.0
 31
0.0
210
0.0
220
0.0
230
1.0
 40
0.867333
 41
1.5308176396716062
 42
4.7523676675079942
  0
ELLIPSE
  5
149
102
{ACAD_REACTORS
330
13F
102
}
100
AcDbEntity
  8
ELECTRICAL
  6
CONTINUOUS
100
AcDbEllipse
 10
168.134589
 20
90.749964
 30
0.0
 11
-0.8654112115107472
 21
0.0
 31
0.0
210
0.0
220
0.0
230
1.0
 40
0.867333
 41
1.5308176396716056
 42
4.7523676675079951
  0
LINE
  5
14A
102
{ACAD_REACTORS
330
13F
102
}
100
AcDbEntity
  8
ELECTRICAL
  6
CONTINUOUS
100
AcDbLine
 10
168.1
 20
95.999964
 30
0.0
 11
166.3
 21
95.999964
 31
0.0
  0
LINE
  5
14B
102
{ACAD_REACTORS
330
13F
102
}
100
AcDbEntity
  8
ELECTRICAL
  6
CONTINUOUS
100
AcDbLine
 10
168.1
 20
89.999964
 30
0.0
 11
166.3
 21
89.999964
 31
0.0
  0
LWPOLYLINE
  5
14C
102
{ACAD_REACTORS
330
13F
102
}
100
AcDbEntity
  8
0
  6
CONTINUOUS
 62
     7
100
AcDbPolyline
 90
        2
 70
     1
 10
156.75
 20
99.249964
 42
-1.0
 10
178.25
 20
99.249964
 42
-1.0
  0
MTEXT
  5
14D
100
AcDbEntity
  8
0
100
AcDbMText
 10
167.5
 20
101.647186
 30
0.0
 40
3.082006
 41
22.5
 71
     2
 72
     5
  1
\C7;\fArial|b0|i0|;\H3.0820059355348;Z Stepper
  0
LINE
  5
14E
100
AcDbEntity
  8
0
  6
CONTINUOUS
 62
     7
100
AcDbLine
 10
140.5
 20
182.499964
 30
0.0
 11
166.3
 21
182.499964
 31
0.0
  0
LINE
  5
14F
100
AcDbEntity
  8
0
  6
CONTINUOUS
 62
    94
100
AcDbLine
 10
140.5
 20
188.499964
 30
0.0
 11
166.3
 21
188.499964
 31
0.0
  0
LINE
  5
150
100
AcDbEntity
  8
0
  6
CONTINUOUS
 62
    10
100
AcDbLine
 10
140.5
 20
170.499964
 30
0.0
 11
166.3
 21
170.499964
 31
0.0
  0
LINE
  5
151
100
AcDbEntity
  8
0
  6
CONTINUOUS
 62
   150
100
AcDbLine
 10
140.5
 20
176.499964
 30
0.0
 11
166.3
 21
176.499964
 31
0.0
  0
LINE
  5
152
100
AcDbEntity
  8
0
  6
CONTINUOUS
 62
    94
100
AcDbLine
 10
140.5
 20
148.999964
 30
0.0
 11
166.3
 21
148.999964
 31
0.0
  0
LINE
  5
153
100
AcDbEntity
  8
0
  6
CONTINUOUS
 62
     7
100
AcDbLine
 10
140.5
 20
142.999964
 30
0.0
 11
166.3
 21
142.999964
 31
0.0
  0
LINE
  5
154
100
AcDbEntity
  8
0
  6
CONTINUOUS
 62
   150
100
AcDbLine
 10
140.5
 20
136.999964
 30
0.0
 11
166.3
 21
136.999964
 31
0.0
  0
LINE
  5
155
100
AcDbEntity
  8
0
  6
CONTINUOUS
 62
    10
100
AcDbLine
 10
140.5
 20
130.999964
 30
0.0
 11
166.3
 21
130.999964
 31
0.0
  0
LINE
  5
156
100
AcDbEntity
  8
0
  6
CONTINUOUS
 62
    94
100
AcDbLine
 10
140.5
 20
107.999964
 30
0.0
 11
166.3
 21
107.999964
 31
0.0
  0
LINE
  5
157
100
AcDbEntity
  8
0
  6
CONTINUOUS
 62
     7
100
AcDbLine
 10
140.5
 20
101.999964
 30
0.0
 11
166.3
 21
101.999964
 31
0.0
  0
LINE
  5
158
100
AcDbEntity
  8
0
  6
CONTINUOUS
 62
   150
100
AcDbLine
 10
140.5
 20
95.999964
 30
0.0
 11
166.3
 21
95.999964
 31
0.0
  0
LINE
  5
159
100
AcDbEntity
  8
0
  6
CONTINUOUS
 62
    10
100
AcDbLine
 10
140.5
 20
89.999964
 30
0.0
 11
166.3
 21
89.999964
 31
0.0
  0
MTEXT
  5
15A
100
AcDbEntity
  8
0
100
AcDbMText
 10
164.052778
 20
222.647186
 30
0.0
 40
3.082006
 41
26.105556
 71
     2
 72
     5
  1
\C7;\fArial|b0|i0|;\H3.0820059355348;Or Laser \Pcutter
  0
ENDSEC
  0
SECTION
  2
OBJECTS
  0
DICTIONARY
  5
C
100
AcDbDictionary
  3
ACAD_GROUP
350
D
  3
ACAD_MLINESTYLE
350
1B
  0
DICTIONARY
  5
D
102
{ACAD_REACTORS
330
C
102
}
100
AcDbDictionary
  3
VISIOGROUP_0
350
33
  3
VISIOGROUP_1
350
3C
  3
VISIOGROUP_2
350
5E
  3
VISIOGROUP_3
350
74
  3
VISIOGROUP_4
350
86
  3
VISIOGROUP_5
350
97
  3
VISIOGROUP_6
350
A6
  3
VISIOGROUP_7
350
BB
  3
VISIOGROUP_8
350
D0
  3
VISIOGROUP_9
350
E5
  3
VISIOGROUP_10
350
EE
  3
VISIOGROUP_11
350
FD
  3
VISIOGROUP_12
350
10C
  3
VISIOGROUP_13
350
121
  3
VISIOGROUP_14
350
130
  3
VISIOGROUP_15
350
13F
  0
DICTIONARY
  5
1B
102
{ACAD_REACTORS
330
C
102
}
100
AcDbDictionary
  3
STANDARD
350
1C
  0
MLINESTYLE
  5
1C
102
{ACAD_REACTORS
330
1B
102
}
100
AcDbMlineStyle
  2
STANDARD
 70
     0
  3

 62
   256
 51
90.0
 52
90.0
 71
     2
 49
0.5
 62
   256
  6
BYLAYER
 49
-0.5
 62
   256
  6
BYLAYER
  0
GROUP
  5
33
102
{ACAD_REACTORS
330
D
102
}
100
AcDbGroup
300
Group created by Visio.
 70
     0
 71
     1
340
34
340
35
340
37
340
39
  0
GROUP
  5
3C
102
{ACAD_REACTORS
330
D
102
}
100
AcDbGroup
300
Group created by Visio.
 70
     0
 71
     1
340
3E
340
3F
340
41
340
43
340
46
340
47
340
48
340
49
340
4B
340
4D
340
4F
340
50
340
51
340
53
340
54
340
55
340
56
340
57
  0
GROUP
  5
5E
102
{ACAD_REACTORS
330
D
102
}
100
AcDbGroup
300
Group created by Visio.
 70
     0
 71
     1
340
60
340
61
340
63
340
65
340
67
340
69
340
6B
340
6D
340
6E
340
6F
340
70
340
71
340
72
340
73
  0
GROUP
  5
74
102
{ACAD_REACTORS
330
D
102
}
100
AcDbGroup
300
Group created by Visio.
 70
     0
 71
     1
340
75
340
76
340
78
340
7A
  0
GROUP
  5
86
102
{ACAD_REACTORS
330
D
102
}
100
AcDbGroup
300
Group created by Visio.
 70
     0
 71
     1
340
87
340
89
340
8B
340
8D
340
8F
340
91
340
93
340
95
  0
GROUP
  5
97
102
{ACAD_REACTORS
330
D
102
}
100
AcDbGroup
300
Group created by Visio.
 70
     0
 71
     1
340
98
340
9A
340
9C
340
9E
340
A0
  0
GROUP
  5
A6
102
{ACAD_REACTORS
330
D
102
}
100
AcDbGroup
300
Group created by Visio.
 70
     0
 71
     1
340
A7
340
A9
340
AB
340
AD
340
AF
340
B1
340
B3
340
B5
340
B7
340
B9
  0
GROUP
  5
BB
102
{ACAD_REACTORS
330
D
102
}
100
AcDbGroup
300
Group created by Visio.
 70
     0
 71
     1
340
BC
340
BE
340
C0
340
C2
340
C4
340
C6
340
C8
340
CA
340
CC
340
CE
  0
GROUP
  5
D0
102
{ACAD_REACTORS
330
D
102
}
100
AcDbGroup
300
Group created by Visio.
 70
     0
 71
     1
340
D1
340
D3
340
D5
340
D7
340
D9
  0
GROUP
  5
E5
102
{ACAD_REACTORS
330
D
102
}
100
AcDbGroup
300
Group created by Visio.
 70
     0
 71
     1
340
E7
340
E8
340
E9
340
EA
340
EB
340
EC
  0
GROUP
  5
EE
102
{ACAD_REACTORS
330
D
102
}
100
AcDbGroup
300
Group created by Visio.
 70
     0
 71
     1
340
EF
340
F1
340
F3
340
F5
340
F6
340
F7
340
F8
  0
GROUP
  5
FD
102
{ACAD_REACTORS
330
D
102
}
100
AcDbGroup
300
Group created by Visio.
 70
     0
 71
     1
340
FE
340
100
340
102
340
104
340
105
340
106
340
107
  0
GROUP
  5
10C
102
{ACAD_REACTORS
330
D
102
}
100
AcDbGroup
300
Group created by Visio.
 70
     0
 71
     1
340
10D
340
10F
340
111
340
113
340
114
340
115
340
116
  0
GROUP
  5
121
102
{ACAD_REACTORS
330
D
102
}
100
AcDbGroup
300
Group created by Visio.
 70
     0
 71
     1
340
122
340
123
340
124
340
125
340
126
340
127
340
128
340
129
340
12A
340
12B
340
12C
340
12D
340
12E
  0
GROUP
  5
130
102
{ACAD_REACTORS
330
D
102
}
100
AcDbGroup
300
Group created by Visio.
 70
     0
 71
     1
340
131
340
132
340
133
340
134
340
135
340
136
340
137
340
138
340
139
340
13A
340
13B
340
13C
340
13D
  0
GROUP
  5
13F
102
{ACAD_REACTORS
330
D
102
}
100
AcDbGroup
300
Group created by Visio.
 70
     0
 71
     1
340
140
340
141
340
142
340
143
340
144
340
145
340
146
340
147
340
148
340
149
340
14A
340
14B
340
14C
  0
ENDSEC
  0
EOF
